<?xml version="1.0" encoding="UTF-8" standalone="no"?>
<!DOCTYPE svg PUBLIC "-//W3C//DTD SVG 1.1//EN"
 "http://www.w3.org/Graphics/SVG/1.1/DTD/svg11.dtd">
<!-- Generated by graphviz version 15.1.1 (20260805.0921)
 -->
<!-- Title: OOP_3/calculate.cpp Pages: 1 -->
<!--zoomable 308 -->

<svg id="main" version="1.1" xmlns="http://www.w3.org/2000/svg" xmlns:xlink="http://www.w3.org/1999/xlink" xml:space="preserve" onload="init(evt)">

<style type="text/css"><![CDATA[
.node, .edge {opacity: 0.7;}
.node.selected, .edge.selected {opacity: 1;}
.edge:hover path { stroke: red; }
.edge:hover polygon { stroke: red; fill: red; }
]]></style>

<defs>
  <circle id="rim" cx="0" cy="0" r="7"/>
  <circle id="rim2" cx="0" cy="0" r="3.5"/>
  <g id="zoomPlus">
    <use xlink:href="#rim" fill="#404040"><set attributeName="fill" to="#808080" begin="zoomplus.mouseover" end="zoomplus.mouseout"/></use>
    <path d="M-4,0h8M0,-4v8" fill="none" stroke="white" stroke-width="1.5" pointer-events="none"/>
  </g>
  <g id="zoomMin">
    <use xlink:href="#rim" fill="#404040"><set attributeName="fill" to="#808080" begin="zoomminus.mouseover" end="zoomminus.mouseout"/></use>
    <path d="M-4,0h8" fill="none" stroke="white" stroke-width="1.5" pointer-events="none"/>
  </g>
  <g id="arrowUp" transform="translate(30 24)">
    <use xlink:href="#rim"/>
    <path pointer-events="none" fill="none" stroke="white" stroke-width="1.5" d="M0,-3.0v7 M-2.5,-0.5L0,-3.0L2.5,-0.5"/>
  </g>
  <g id="arrowRight" transform="rotate(90) translate(36 -43)">
    <use xlink:href="#rim"/>
    <path pointer-events="none" fill="none" stroke="white" stroke-width="1.5" d="M0,-3.0v7 M-2.5,-0.5L0,-3.0L2.5,-0.5"/>
  </g>
  <g id="arrowDown" transform="rotate(180) translate(-30 -48)">
    <use xlink:href="#rim"/>
    <path pointer-events="none" fill="none" stroke="white" stroke-width="1.5" d="M0,-3.0v7 M-2.5,-0.5L0,-3.0L2.5,-0.5"/>
  </g>
  <g id="arrowLeft" transform="rotate(270) translate(-36 17)">
    <use xlink:href="#rim"/>
    <path pointer-events="none" fill="none" stroke="white" stroke-width="1.5" d="M0,-3.0v7 M-2.5,-0.5L0,-3.0L2.5,-0.5"/>
  </g>
  <g id="resetDef">
    <use xlink:href="#rim2" fill="#404040"><set attributeName="fill" to="#808080" begin="reset.mouseover" end="reset.mouseout"/></use>
  </g>
</defs>
<script type="application/ecmascript">
var viewWidth = 845;
var viewHeight = 308;
var sectionId = 'dynsection-0';
</script>
<script type="application/ecmascript" xlink:href="svg.min.js"/>
<svg id="graph" class="graph">
<g id="viewport">
<title>OOP_3/calculate.cpp</title>
<!-- Node1 -->
<g id="Node000001" class="node">
<title>Node1</title>
<g id="a_Node000001"><a xlink:title=" ">
<polygon fill="#999999" stroke="#666666" points="253.5,-300 144.5,-300 144.5,-280 253.5,-280 253.5,-300"/>
<text xml:space="preserve" text-anchor="middle" x="199" y="-286.5" font-family="Helvetica,sans-Serif" font-size="10.00">OOP_3/calculate.cpp</text>
</a>
</g>
</g>
<!-- Node2 -->
<g id="Node000002" class="node">
<title>Node2</title>
<g id="a_Node000002"><a xlink:href="calculate_8h.html" target="_top" xlink:title=" ">
<polygon fill="white" stroke="#666666" points="230.62,-244 167.38,-244 167.38,-224 230.62,-224 230.62,-244"/>
<text xml:space="preserve" text-anchor="middle" x="199" y="-230.5" font-family="Helvetica,sans-Serif" font-size="10.00">calculate.h</text>
</a>
</g>
</g>
<!-- Node1&#45;&gt;Node2 -->
<g id="edge1_Node000001_Node000002" class="edge">
<title>Node1&#45;&gt;Node2</title>
<g id="a_edge1_Node000001_Node000002"><a xlink:title=" ">
<path fill="none" stroke="#63b8ff" d="M199,-279.59C199,-273.01 199,-263.96 199,-255.73"/>
<polygon fill="#63b8ff" stroke="#63b8ff" points="202.5,-255.81 199,-245.81 195.5,-255.81 202.5,-255.81"/>
</a>
</g>
</g>
<!-- Node3 -->
<g id="Node000003" class="node">
<title>Node3</title>
<g id="a_Node000003"><a xlink:href="main_8h.html" target="_top" xlink:title=" ">
<polygon fill="white" stroke="#666666" points="529.62,-188 484.38,-188 484.38,-168 529.62,-168 529.62,-188"/>
<text xml:space="preserve" text-anchor="middle" x="507" y="-174.5" font-family="Helvetica,sans-Serif" font-size="10.00">main.h</text>
</a>
</g>
</g>
<!-- Node2&#45;&gt;Node3 -->
<g id="edge2_Node000002_Node000003" class="edge">
<title>Node2&#45;&gt;Node3</title>
<g id="a_edge2_Node000002_Node000003"><a xlink:title=" ">
<path fill="none" stroke="#63b8ff" d="M231.09,-227.37C289.59,-217.12 413.06,-195.47 472.97,-184.97"/>
<polygon fill="#63b8ff" stroke="#63b8ff" points="473.33,-188.46 482.57,-183.28 472.12,-181.56 473.33,-188.46"/>
</a>
</g>
</g>
<!-- Node7 -->
<g id="Node000007" class="node">
<title>Node7</title>
<g id="a_Node000007"><a xlink:title=" ">
<polygon fill="#e0e0e0" stroke="#999999" points="150.5,-76 107.5,-76 107.5,-56 150.5,-56 150.5,-76"/>
<text xml:space="preserve" text-anchor="middle" x="129" y="-62.5" font-family="Helvetica,sans-Serif" font-size="10.00">vector</text>
</a>
</g>
</g>
<!-- Node2&#45;&gt;Node7 -->
<g id="edge38_Node000002_Node000007" class="edge">
<title>Node2&#45;&gt;Node7</title>
<g id="a_edge38_Node000002_Node000007"><a xlink:title=" ">
<path fill="none" stroke="#63b8ff" d="M193.79,-223.76C184.08,-206.26 162.9,-166.9 149,-132 143.17,-117.37 137.99,-100.34 134.36,-87.38"/>
<polygon fill="#63b8ff" stroke="#63b8ff" points="137.78,-86.62 131.78,-77.88 131.02,-88.45 137.78,-86.62"/>
</a>
</g>
</g>
<!-- Node11 -->
<g id="Node000011" class="node">
<title>Node11</title>
<g id="a_Node000011"><a xlink:title=" ">
<polygon fill="#e0e0e0" stroke="#999999" points="836.88,-20 775.12,-20 775.12,0 836.88,0 836.88,-20"/>
<text xml:space="preserve" text-anchor="middle" x="806" y="-6.5" font-family="Helvetica,sans-Serif" font-size="10.00">type_traits</text>
</a>
</g>
</g>
<!-- Node2&#45;&gt;Node11 -->
<g id="edge41_Node000002_Node000011" class="edge">
<title>Node2&#45;&gt;Node11</title>
<g id="a_edge41_Node000002_Node000011"><a xlink:title=" ">
<path fill="none" stroke="#63b8ff" d="M230.93,-229.98C332.85,-219.88 648.74,-184.93 735,-132 763.95,-114.24 770.23,-105.54 787,-76 794.83,-62.21 799.68,-44.9 802.52,-31.62"/>
<polygon fill="#63b8ff" stroke="#63b8ff" points="805.95,-32.32 804.38,-21.84 799.08,-31.02 805.95,-32.32"/>
</a>
</g>
</g>
<!-- Node13 -->
<g id="Node000013" class="node">
<title>Node13</title>
<g id="a_Node000013"><a xlink:title=" ">
<polygon fill="#e0e0e0" stroke="#999999" points="538.38,-20 479.62,-20 479.62,0 538.38,0 538.38,-20"/>
<text xml:space="preserve" text-anchor="middle" x="509" y="-6.5" font-family="Helvetica,sans-Serif" font-size="10.00">stdexcept</text>
</a>
</g>
</g>
<!-- Node2&#45;&gt;Node13 -->
<g id="edge42_Node000002_Node000013" class="edge">
<title>Node2&#45;&gt;Node13</title>
<g id="a_edge42_Node000002_Node000013"><a xlink:title=" ">
<path fill="none" stroke="#63b8ff" d="M205,-223.53C216.35,-205.65 241.69,-165.68 263,-132 284.36,-98.24 278.37,-79.05 311,-56 367.4,-16.15 396.56,-34.23 468.29,-20.2"/>
<polygon fill="#63b8ff" stroke="#63b8ff" points="468.66,-23.71 477.71,-18.21 467.2,-16.86 468.66,-23.71"/>
</a>
</g>
</g>
<!-- Node17 -->
<g id="Node000017" class="node">
<title>Node17</title>
<g id="a_Node000017"><a xlink:title=" ">
<polygon fill="#e0e0e0" stroke="#999999" points="46,-20 0,-20 0,0 46,0 46,-20"/>
<text xml:space="preserve" text-anchor="middle" x="23" y="-6.5" font-family="Helvetica,sans-Serif" font-size="10.00">iterator</text>
</a>
</g>
</g>
<!-- Node2&#45;&gt;Node17 -->
<g id="edge40_Node000002_Node000017" class="edge">
<title>Node2&#45;&gt;Node17</title>
<g id="a_edge40_Node000002_Node000017"><a xlink:title=" ">
<path fill="none" stroke="#63b8ff" d="M185.15,-223.65C173.18,-215.19 155.85,-201.94 143,-188 95.29,-136.26 52.44,-64.09 33.41,-30.12"/>
<polygon fill="#63b8ff" stroke="#63b8ff" points="36.53,-28.53 28.63,-21.47 30.41,-31.92 36.53,-28.53"/>
</a>
</g>
</g>
<!-- Node19 -->
<g id="Node000019" class="node">
<title>Node19</title>
<g id="a_Node000019"><a xlink:title=" ">
<polygon fill="#e0e0e0" stroke="#999999" points="119.88,-20 64.12,-20 64.12,0 119.88,0 119.88,-20"/>
<text xml:space="preserve" text-anchor="middle" x="92" y="-6.5" font-family="Helvetica,sans-Serif" font-size="10.00">algorithm</text>
</a>
</g>
</g>
<!-- Node2&#45;&gt;Node19 -->
<g id="edge39_Node000002_Node000019" class="edge">
<title>Node2&#45;&gt;Node19</title>
<g id="a_edge39_Node000002_Node000019"><a xlink:title=" ">
<path fill="none" stroke="#63b8ff" d="M190.28,-223.78C182.18,-214.97 170.05,-201.13 161,-188 128.71,-141.15 116.16,-130.25 99,-76 94.48,-61.72 92.76,-44.88 92.15,-31.92"/>
<polygon fill="#63b8ff" stroke="#63b8ff" points="95.66,-31.91 91.9,-22.01 88.66,-32.1 95.66,-31.91"/>
</a>
</g>
</g>
<!-- Node4 -->
<g id="Node000004" class="node">
<title>Node4</title>
<g id="a_Node000004"><a xlink:title=" ">
<polygon fill="#e0e0e0" stroke="#999999" points="372.25,-132 309.75,-132 309.75,-112 372.25,-112 372.25,-132"/>
<text xml:space="preserve" text-anchor="middle" x="341" y="-118.5" font-family="Helvetica,sans-Serif" font-size="10.00">windows.h</text>
</a>
</g>
</g>
<!-- Node3&#45;&gt;Node4 -->
<g id="edge3_Node000003_Node000004" class="edge">
<title>Node3&#45;&gt;Node4</title>
<g id="a_edge3_Node000003_Node000004"><a xlink:title=" ">
<path fill="none" stroke="#63b8ff" d="M483.92,-169.49C457.3,-160.83 413.08,-146.45 380.87,-135.97"/>
<polygon fill="#63b8ff" stroke="#63b8ff" points="382.05,-132.67 371.46,-132.91 379.89,-139.33 382.05,-132.67"/>
</a>
</g>
</g>
<!-- Node5 -->
<g id="Node000005" class="node">
<title>Node5</title>
<g id="a_Node000005"><a xlink:title=" ">
<polygon fill="#e0e0e0" stroke="#999999" points="756.75,-20 703.25,-20 703.25,0 756.75,0 756.75,-20"/>
<text xml:space="preserve" text-anchor="middle" x="730" y="-6.5" font-family="Helvetica,sans-Serif" font-size="10.00">iostream</text>
</a>
</g>
</g>
<!-- Node3&#45;&gt;Node5 -->
<g id="edge4_Node000003_Node000005" class="edge">
<title>Node3&#45;&gt;Node5</title>
<g id="a_edge4_Node000003_Node000005"><a xlink:title=" ">
<path fill="none" stroke="#63b8ff" d="M530.06,-177.78C567.72,-177.78 642.64,-172.27 687,-132 715.93,-105.74 725.4,-58.73 728.5,-31.68"/>
<polygon fill="#63b8ff" stroke="#63b8ff" points="731.96,-32.29 729.4,-22.01 724.99,-31.64 731.96,-32.29"/>
</a>
</g>
</g>
<!-- Node6 -->
<g id="Node000006" class="node">
<title>Node6</title>
<g id="a_Node000006"><a xlink:title=" ">
<polygon fill="#e0e0e0" stroke="#999999" points="655,-20 615,-20 615,0 655,0 655,-20"/>
<text xml:space="preserve" text-anchor="middle" x="635" y="-6.5" font-family="Helvetica,sans-Serif" font-size="10.00">string</text>
</a>
</g>
</g>
<!-- Node3&#45;&gt;Node6 -->
<g id="edge5_Node000003_Node000006" class="edge">
<title>Node3&#45;&gt;Node6</title>
<g id="a_edge5_Node000003_Node000006"><a xlink:title=" ">
<path fill="none" stroke="#63b8ff" d="M530.01,-177.95C565.43,-178.03 632.82,-172.44 667,-132 688.87,-106.12 684.64,-87.82 673,-56 669.21,-45.65 661.88,-36.03 654.65,-28.37"/>
<polygon fill="#63b8ff" stroke="#63b8ff" points="657.12,-25.89 647.52,-21.41 652.23,-30.9 657.12,-25.89"/>
</a>
</g>
</g>
<!-- Node3&#45;&gt;Node7 -->
<g id="edge6_Node000003_Node000007" class="edge">
<title>Node3&#45;&gt;Node7</title>
<g id="a_edge6_Node000003_Node000007"><a xlink:title=" ">
<path fill="none" stroke="#63b8ff" d="M484.06,-176.32C417.43,-173.96 225.34,-164.44 173,-132 156.02,-121.47 144.05,-101.68 136.93,-86.69"/>
<polygon fill="#63b8ff" stroke="#63b8ff" points="140.25,-85.54 133.03,-77.78 133.84,-88.35 140.25,-85.54"/>
</a>
</g>
</g>
<!-- Node8 -->
<g id="Node000008" class="node">
<title>Node8</title>
<g id="a_Node000008"><a xlink:title=" ">
<polygon fill="#e0e0e0" stroke="#999999" points="419.4,-132 390.6,-132 390.6,-112 419.4,-112 419.4,-132"/>
<text xml:space="preserve" text-anchor="middle" x="405" y="-118.5" font-family="Helvetica,sans-Serif" font-size="10.00">list</text>
</a>
</g>
</g>
<!-- Node3&#45;&gt;Node8 -->
<g id="edge7_Node000003_Node000008" class="edge">
<title>Node3&#45;&gt;Node8</title>
<g id="a_edge7_Node000003_Node000008"><a xlink:title=" ">
<path fill="none" stroke="#63b8ff" d="M489.23,-167.59C472.72,-158.85 447.99,-145.76 429.59,-136.02"/>
<polygon fill="#63b8ff" stroke="#63b8ff" points="431.41,-133.02 420.93,-131.43 428.13,-139.21 431.41,-133.02"/>
</a>
</g>
</g>
<!-- Node9 -->
<g id="Node000009" class="node">
<title>Node9</title>
<g id="a_Node000009"><a xlink:title=" ">
<polygon fill="#e0e0e0" stroke="#999999" points="565.12,-132 522.88,-132 522.88,-112 565.12,-112 565.12,-132"/>
<text xml:space="preserve" text-anchor="middle" x="544" y="-118.5" font-family="Helvetica,sans-Serif" font-size="10.00">deque</text>
</a>
</g>
</g>
<!-- Node3&#45;&gt;Node9 -->
<g id="edge8_Node000003_Node000009" class="edge">
<title>Node3&#45;&gt;Node9</title>
<g id="a_edge8_Node000003_Node000009"><a xlink:title=" ">
<path fill="none" stroke="#63b8ff" d="M513.44,-167.59C518.33,-160.47 525.19,-150.45 531.18,-141.72"/>
<polygon fill="#63b8ff" stroke="#63b8ff" points="534.01,-143.77 536.77,-133.55 528.23,-139.82 534.01,-143.77"/>
</a>
</g>
</g>
<!-- Node10 -->
<g id="Node000010" class="node">
<title>Node10</title>
<g id="a_Node000010"><a xlink:title=" ">
<polygon fill="#e0e0e0" stroke="#999999" points="641,-132 583,-132 583,-112 641,-112 641,-132"/>
<text xml:space="preserve" text-anchor="middle" x="612" y="-118.5" font-family="Helvetica,sans-Serif" font-size="10.00">exception</text>
</a>
</g>
</g>
<!-- Node3&#45;&gt;Node10 -->
<g id="edge9_Node000003_Node000010" class="edge">
<title>Node3&#45;&gt;Node10</title>
<g id="a_edge9_Node000003_Node000010"><a xlink:title=" ">
<path fill="none" stroke="#63b8ff" d="M525.29,-167.59C541.3,-159.36 564.83,-147.26 583.34,-137.74"/>
<polygon fill="#63b8ff" stroke="#63b8ff" points="584.93,-140.86 592.22,-133.17 581.73,-134.63 584.93,-140.86"/>
</a>
</g>
</g>
<!-- Node3&#45;&gt;Node11 -->
<g id="edge10_Node000003_Node000011" class="edge">
<title>Node3&#45;&gt;Node11</title>
<g id="a_edge10_Node000003_Node000011"><a xlink:title=" ">
<path fill="none" stroke="#63b8ff" d="M530.05,-176.72C569.6,-175.24 651.67,-167.71 709,-132 749.97,-106.48 781.13,-57.35 796.13,-30.2"/>
<polygon fill="#63b8ff" stroke="#63b8ff" points="799.05,-32.16 800.68,-21.69 792.88,-28.86 799.05,-32.16"/>
</a>
</g>
</g>
<!-- Node12 -->
<g id="Node000012" class="node">
<title>Node12</title>
<g id="a_Node000012"><a xlink:href="zmogus_8h.html" target="_top" xlink:title="Abstrakti bazinė klasė, aprašanti bendrus žmogaus duomenis.">
<polygon fill="white" stroke="#666666" points="664.38,-76 605.62,-76 605.62,-56 664.38,-56 664.38,-76"/>
<text xml:space="preserve" text-anchor="middle" x="635" y="-62.5" font-family="Helvetica,sans-Serif" font-size="10.00">zmogus.h</text>
</a>
</g>
</g>
<!-- Node3&#45;&gt;Node12 -->
<g id="edge11_Node000003_Node000012" class="edge">
<title>Node3&#45;&gt;Node12</title>
<g id="a_edge11_Node000003_Node000012"><a xlink:title=" ">
<path fill="none" stroke="#63b8ff" d="M530,-177.44C562.85,-176.67 622.29,-169.77 650,-132 659.73,-118.74 654.05,-100.18 647.06,-86.29"/>
<polygon fill="#63b8ff" stroke="#63b8ff" points="650.15,-84.65 642.19,-77.66 644.05,-88.09 650.15,-84.65"/>
</a>
</g>
</g>
<!-- Node14 -->
<g id="Node000014" class="node">
<title>Node14</title>
<g id="a_Node000014"><a xlink:href="studentas_8h.html" target="_top" xlink:title="Išvestinė klasė studentas — studento duomenys ir galutinių balų skaičiavimas.">
<polygon fill="white" stroke="#666666" points="504.5,-132 437.5,-132 437.5,-112 504.5,-112 504.5,-132"/>
<text xml:space="preserve" text-anchor="middle" x="471" y="-118.5" font-family="Helvetica,sans-Serif" font-size="10.00">studentas.h</text>
</a>
</g>
</g>
<!-- Node3&#45;&gt;Node14 -->
<g id="edge15_Node000003_Node000014" class="edge">
<title>Node3&#45;&gt;Node14</title>
<g id="a_edge15_Node000003_Node000014"><a xlink:title=" ">
<path fill="none" stroke="#63b8ff" d="M500.73,-167.59C495.98,-160.47 489.3,-150.45 483.48,-141.72"/>
<polygon fill="#63b8ff" stroke="#63b8ff" points="486.5,-139.94 478.04,-133.56 480.67,-143.82 486.5,-139.94"/>
</a>
</g>
</g>
<!-- Node26 -->
<g id="Node000026" class="node">
<title>Node26</title>
<g id="a_Node000026"><a xlink:href="konteineris_8h.html" target="_top" xlink:title="Konteinerio tipo perjungimas tarp std::vector ir nuosavos Vector.">
<polygon fill="white" stroke="#666666" points="253.75,-132 182.25,-132 182.25,-112 253.75,-112 253.75,-132"/>
<text xml:space="preserve" text-anchor="middle" x="218" y="-118.5" font-family="Helvetica,sans-Serif" font-size="10.00">konteineris.h</text>
</a>
</g>
</g>
<!-- Node3&#45;&gt;Node26 -->
<g id="edge35_Node000003_Node000026" class="edge">
<title>Node3&#45;&gt;Node26</title>
<g id="a_edge35_Node000003_Node000026"><a xlink:title=" ">
<path fill="none" stroke="#63b8ff" d="M484.32,-172.76C437.22,-163.96 327.96,-143.55 264.99,-131.78"/>
<polygon fill="#63b8ff" stroke="#63b8ff" points="265.76,-128.36 255.29,-129.97 264.47,-135.24 265.76,-128.36"/>
</a>
</g>
</g>
<!-- Node12&#45;&gt;Node5 -->
<g id="edge13_Node000012_Node000005" class="edge">
<title>Node12&#45;&gt;Node5</title>
<g id="a_edge13_Node000012_Node000005"><a xlink:title=" ">
<path fill="none" stroke="#63b8ff" d="M651.55,-55.59C665.9,-47.44 686.93,-35.48 703.6,-26"/>
<polygon fill="#63b8ff" stroke="#63b8ff" points="705.04,-29.21 712.01,-21.23 701.58,-23.13 705.04,-29.21"/>
</a>
</g>
</g>
<!-- Node12&#45;&gt;Node6 -->
<g id="edge12_Node000012_Node000006" class="edge">
<title>Node12&#45;&gt;Node6</title>
<g id="a_edge12_Node000012_Node000006"><a xlink:title=" ">
<path fill="none" stroke="#63b8ff" d="M635,-55.59C635,-49.01 635,-39.96 635,-31.73"/>
<polygon fill="#63b8ff" stroke="#63b8ff" points="638.5,-31.81 635,-21.81 631.5,-31.81 638.5,-31.81"/>
</a>
</g>
</g>
<!-- Node12&#45;&gt;Node13 -->
<g id="edge14_Node000012_Node000013" class="edge">
<title>Node12&#45;&gt;Node13</title>
<g id="a_edge14_Node000012_Node000013"><a xlink:title=" ">
<path fill="none" stroke="#63b8ff" d="M613.05,-55.59C593.3,-47.13 564.01,-34.58 541.53,-24.94"/>
<polygon fill="#63b8ff" stroke="#63b8ff" points="543.08,-21.8 532.51,-21.08 540.32,-28.23 543.08,-21.8"/>
</a>
</g>
</g>
<!-- Node14&#45;&gt;Node5 -->
<g id="edge29_Node000014_Node000005" class="edge">
<title>Node14&#45;&gt;Node5</title>
<g id="a_edge29_Node000014_Node000005"><a xlink:title=" ">
<path fill="none" stroke="#63b8ff" d="M504.97,-113.71C561.56,-101.54 669.36,-78.16 673,-76 692.3,-64.56 708.5,-44.31 718.64,-29.45"/>
<polygon fill="#63b8ff" stroke="#63b8ff" points="721.31,-31.75 723.82,-21.46 715.44,-27.94 721.31,-31.75"/>
</a>
</g>
</g>
<!-- Node14&#45;&gt;Node6 -->
<g id="edge27_Node000014_Node000006" class="edge">
<title>Node14&#45;&gt;Node6</title>
<g id="a_edge27_Node000014_Node000006"><a xlink:title=" ">
<path fill="none" stroke="#63b8ff" d="M492.77,-111.61C511.08,-103.31 537.61,-90.32 559,-76 580.5,-61.6 602.73,-41.93 617.55,-28.01"/>
<polygon fill="#63b8ff" stroke="#63b8ff" points="619.84,-30.67 624.65,-21.23 615,-25.61 619.84,-30.67"/>
</a>
</g>
</g>
<!-- Node14&#45;&gt;Node7 -->
<g id="edge28_Node000014_Node000007" class="edge">
<title>Node14&#45;&gt;Node7</title>
<g id="a_edge28_Node000014_Node000007"><a xlink:title=" ">
<path fill="none" stroke="#63b8ff" d="M437.24,-113.7C434.12,-113.1 431.01,-112.52 428,-112 311.75,-91.9 280.84,-98.34 165,-76 163.83,-75.77 162.64,-75.53 161.44,-75.28"/>
<polygon fill="#63b8ff" stroke="#63b8ff" points="162.62,-71.96 152.09,-73.15 161.06,-78.79 162.62,-71.96"/>
</a>
</g>
</g>
<!-- Node14&#45;&gt;Node12 -->
<g id="edge16_Node000014_Node000012" class="edge">
<title>Node14&#45;&gt;Node12</title>
<g id="a_edge16_Node000014_Node000012"><a xlink:title=" ">
<path fill="none" stroke="#63b8ff" d="M499.57,-111.59C526.1,-102.86 565.84,-89.77 595.42,-80.03"/>
<polygon fill="#63b8ff" stroke="#63b8ff" points="596.37,-83.4 604.77,-76.95 594.18,-76.76 596.37,-83.4"/>
</a>
</g>
</g>
<!-- Node14&#45;&gt;Node13 -->
<g id="edge33_Node000014_Node000013" class="edge">
<title>Node14&#45;&gt;Node13</title>
<g id="a_edge33_Node000014_Node000013"><a xlink:title=" ">
<path fill="none" stroke="#63b8ff" d="M472.2,-111.51C474.02,-98.65 478.01,-75.08 485,-56 488.23,-47.18 492.9,-37.95 497.26,-30.16"/>
<polygon fill="#63b8ff" stroke="#63b8ff" points="500.24,-32 502.28,-21.6 494.21,-28.46 500.24,-32"/>
</a>
</g>
</g>
<!-- Node15 -->
<g id="Node000015" class="node">
<title>Node15</title>
<g id="a_Node000015"><a xlink:href="_vector_8h.html" target="_top" xlink:title="Nuosava std::vector alternatyva — dinaminis masyvas.">
<polygon fill="white" stroke="#666666" points="259,-76 207,-76 207,-56 259,-56 259,-76"/>
<text xml:space="preserve" text-anchor="middle" x="233" y="-62.5" font-family="Helvetica,sans-Serif" font-size="10.00">Vector.h</text>
</a>
</g>
</g>
<!-- Node14&#45;&gt;Node15 -->
<g id="edge17_Node000014_Node000015" class="edge">
<title>Node14&#45;&gt;Node15</title>
<g id="a_edge17_Node000014_Node000015"><a xlink:title=" ">
<path fill="none" stroke="#63b8ff" d="M437.15,-113.32C393.12,-103.33 316.41,-85.93 270.6,-75.53"/>
<polygon fill="#63b8ff" stroke="#63b8ff" points="271.39,-72.12 260.86,-73.32 269.84,-78.95 271.39,-72.12"/>
</a>
</g>
</g>
<!-- Node14&#45;&gt;Node19 -->
<g id="edge31_Node000014_Node000019" class="edge">
<title>Node14&#45;&gt;Node19</title>
<g id="a_edge31_Node000014_Node000019"><a xlink:title=" ">
<path fill="none" stroke="#63b8ff" d="M437.23,-113.76C434.11,-113.15 431,-112.55 428,-112 326.22,-93.4 295.1,-111.74 198,-76 181.01,-69.75 140.78,-43.78 115.05,-26.62"/>
<polygon fill="#63b8ff" stroke="#63b8ff" points="117.18,-23.83 106.92,-21.16 113.28,-29.64 117.18,-23.83"/>
</a>
</g>
</g>
<!-- Node23 -->
<g id="Node000023" class="node">
<title>Node23</title>
<g id="a_Node000023"><a xlink:title=" ">
<polygon fill="#e0e0e0" stroke="#999999" points="370.25,-76 319.75,-76 319.75,-56 370.25,-56 370.25,-76"/>
<text xml:space="preserve" text-anchor="middle" x="345" y="-62.5" font-family="Helvetica,sans-Serif" font-size="10.00">numeric</text>
</a>
</g>
</g>
<!-- Node14&#45;&gt;Node23 -->
<g id="edge30_Node000014_Node000023" class="edge">
<title>Node14&#45;&gt;Node23</title>
<g id="a_edge30_Node000014_Node000023"><a xlink:title=" ">
<path fill="none" stroke="#63b8ff" d="M449.05,-111.59C429.3,-103.13 400.01,-90.58 377.53,-80.94"/>
<polygon fill="#63b8ff" stroke="#63b8ff" points="379.08,-77.8 368.51,-77.08 376.32,-84.23 379.08,-77.8"/>
</a>
</g>
</g>
<!-- Node24 -->
<g id="Node000024" class="node">
<title>Node24</title>
<g id="a_Node000024"><a xlink:title=" ">
<polygon fill="#e0e0e0" stroke="#999999" points="437.88,-76 388.12,-76 388.12,-56 437.88,-56 437.88,-76"/>
<text xml:space="preserve" text-anchor="middle" x="413" y="-62.5" font-family="Helvetica,sans-Serif" font-size="10.00">iomanip</text>
</a>
</g>
</g>
<!-- Node14&#45;&gt;Node24 -->
<g id="edge32_Node000014_Node000024" class="edge">
<title>Node14&#45;&gt;Node24</title>
<g id="a_edge32_Node000014_Node000024"><a xlink:title=" ">
<path fill="none" stroke="#63b8ff" d="M460.9,-111.59C452.75,-104.01 441.07,-93.13 431.28,-84.02"/>
<polygon fill="#63b8ff" stroke="#63b8ff" points="433.8,-81.58 424.09,-77.33 429.03,-86.71 433.8,-81.58"/>
</a>
</g>
</g>
<!-- Node25 -->
<g id="Node000025" class="node">
<title>Node25</title>
<g id="a_Node000025"><a xlink:title=" ">
<polygon fill="#e0e0e0" stroke="#999999" points="549.88,-76 494.12,-76 494.12,-56 549.88,-56 549.88,-76"/>
<text xml:space="preserve" text-anchor="middle" x="522" y="-62.5" font-family="Helvetica,sans-Serif" font-size="10.00">charconv</text>
</a>
</g>
</g>
<!-- Node14&#45;&gt;Node25 -->
<g id="edge34_Node000014_Node000025" class="edge">
<title>Node14&#45;&gt;Node25</title>
<g id="a_edge34_Node000014_Node000025"><a xlink:title=" ">
<path fill="none" stroke="#63b8ff" d="M479.88,-111.59C486.9,-104.16 496.9,-93.58 505.39,-84.58"/>
<polygon fill="#63b8ff" stroke="#63b8ff" points="507.86,-87.07 512.18,-77.4 502.77,-82.27 507.86,-87.07"/>
</a>
</g>
</g>
<!-- Node15&#45;&gt;Node11 -->
<g id="edge24_Node000015_Node000011" class="edge">
<title>Node15&#45;&gt;Node11</title>
<g id="a_edge24_Node000015_Node000011"><a xlink:title=" ">
<path fill="none" stroke="#63b8ff" d="M259.33,-61.72C274.44,-59.9 293.77,-57.68 311,-56 509.25,-36.73 563.48,-49.85 763.45,-20.18"/>
<polygon fill="#63b8ff" stroke="#63b8ff" points="763.77,-23.67 773.14,-18.72 762.73,-16.75 763.77,-23.67"/>
</a>
</g>
</g>
<!-- Node15&#45;&gt;Node13 -->
<g id="edge20_Node000015_Node000013" class="edge">
<title>Node15&#45;&gt;Node13</title>
<g id="a_edge20_Node000015_Node000013"><a xlink:title=" ">
<path fill="none" stroke="#63b8ff" d="M259.22,-58.94C263.8,-57.93 268.54,-56.91 273,-56 356.72,-38.94 380.92,-38.06 467.99,-20.33"/>
<polygon fill="#63b8ff" stroke="#63b8ff" points="468.65,-23.77 477.74,-18.33 467.24,-16.91 468.65,-23.77"/>
</a>
</g>
</g>
<!-- Node16 -->
<g id="Node000016" class="node">
<title>Node16</title>
<g id="a_Node000016"><a xlink:title=" ">
<polygon fill="#e0e0e0" stroke="#999999" points="370.62,-20 319.38,-20 319.38,0 370.62,0 370.62,-20"/>
<text xml:space="preserve" text-anchor="middle" x="345" y="-6.5" font-family="Helvetica,sans-Serif" font-size="10.00">memory</text>
</a>
</g>
</g>
<!-- Node15&#45;&gt;Node16 -->
<g id="edge18_Node000015_Node000016" class="edge">
<title>Node15&#45;&gt;Node16</title>
<g id="a_edge18_Node000015_Node000016"><a xlink:title=" ">
<path fill="none" stroke="#63b8ff" d="M252.51,-55.59C269.75,-47.28 295.16,-35.03 314.99,-25.47"/>
<polygon fill="#63b8ff" stroke="#63b8ff" points="316.49,-28.63 323.98,-21.14 313.45,-22.33 316.49,-28.63"/>
</a>
</g>
</g>
<!-- Node15&#45;&gt;Node17 -->
<g id="edge19_Node000015_Node000017" class="edge">
<title>Node15&#45;&gt;Node17</title>
<g id="a_edge19_Node000015_Node000017"><a xlink:title=" ">
<path fill="none" stroke="#63b8ff" d="M206.7,-58.58C173.96,-50.54 116.05,-36.16 57.36,-20.58"/>
<polygon fill="#63b8ff" stroke="#63b8ff" points="58.43,-17.24 47.86,-18.05 56.62,-24.01 58.43,-17.24"/>
</a>
</g>
</g>
<!-- Node18 -->
<g id="Node000018" class="node">
<title>Node18</title>
<g id="a_Node000018"><a xlink:title=" ">
<polygon fill="#e0e0e0" stroke="#999999" points="461.12,-20 388.88,-20 388.88,0 461.12,0 461.12,-20"/>
<text xml:space="preserve" text-anchor="middle" x="425" y="-6.5" font-family="Helvetica,sans-Serif" font-size="10.00">initializer_list</text>
</a>
</g>
</g>
<!-- Node15&#45;&gt;Node18 -->
<g id="edge21_Node000015_Node000018" class="edge">
<title>Node15&#45;&gt;Node18</title>
<g id="a_edge21_Node000015_Node000018"><a xlink:title=" ">
<path fill="none" stroke="#63b8ff" d="M259.29,-57.6C290.52,-48.82 343.08,-34.04 380.63,-23.48"/>
<polygon fill="#63b8ff" stroke="#63b8ff" points="381.14,-26.97 389.82,-20.89 379.25,-20.23 381.14,-26.97"/>
</a>
</g>
</g>
<!-- Node15&#45;&gt;Node19 -->
<g id="edge22_Node000015_Node000019" class="edge">
<title>Node15&#45;&gt;Node19</title>
<g id="a_edge22_Node000015_Node000019"><a xlink:title=" ">
<path fill="none" stroke="#63b8ff" d="M208.44,-55.59C186.03,-47.01 152.66,-34.23 127.38,-24.55"/>
<polygon fill="#63b8ff" stroke="#63b8ff" points="128.76,-21.33 118.17,-21.02 126.25,-27.87 128.76,-21.33"/>
</a>
</g>
</g>
<!-- Node20 -->
<g id="Node000020" class="node">
<title>Node20</title>
<g id="a_Node000020"><a xlink:title=" ">
<polygon fill="#e0e0e0" stroke="#999999" points="177.62,-20 138.38,-20 138.38,0 177.62,0 177.62,-20"/>
<text xml:space="preserve" text-anchor="middle" x="158" y="-6.5" font-family="Helvetica,sans-Serif" font-size="10.00">utility</text>
</a>
</g>
</g>
<!-- Node15&#45;&gt;Node20 -->
<g id="edge23_Node000015_Node000020" class="edge">
<title>Node15&#45;&gt;Node20</title>
<g id="a_edge23_Node000015_Node000020"><a xlink:title=" ">
<path fill="none" stroke="#63b8ff" d="M219.94,-55.59C209.03,-47.74 193.25,-36.38 180.34,-27.09"/>
<polygon fill="#63b8ff" stroke="#63b8ff" points="182.55,-24.37 172.39,-21.36 178.46,-30.05 182.55,-24.37"/>
</a>
</g>
</g>
<!-- Node21 -->
<g id="Node000021" class="node">
<title>Node21</title>
<g id="a_Node000021"><a xlink:title=" ">
<polygon fill="#e0e0e0" stroke="#999999" points="244.12,-20 195.88,-20 195.88,0 244.12,0 244.12,-20"/>
<text xml:space="preserve" text-anchor="middle" x="220" y="-6.5" font-family="Helvetica,sans-Serif" font-size="10.00">cstddef</text>
</a>
</g>
</g>
<!-- Node15&#45;&gt;Node21 -->
<g id="edge25_Node000015_Node000021" class="edge">
<title>Node15&#45;&gt;Node21</title>
<g id="a_edge25_Node000015_Node000021"><a xlink:title=" ">
<path fill="none" stroke="#63b8ff" d="M230.74,-55.59C229.13,-48.93 226.92,-39.75 224.92,-31.44"/>
<polygon fill="#63b8ff" stroke="#63b8ff" points="228.34,-30.67 222.59,-21.77 221.53,-32.31 228.34,-30.67"/>
</a>
</g>
</g>
<!-- Node22 -->
<g id="Node000022" class="node">
<title>Node22</title>
<g id="a_Node000022"><a xlink:title=" ">
<polygon fill="#e0e0e0" stroke="#999999" points="301.62,-20 262.38,-20 262.38,0 301.62,0 301.62,-20"/>
<text xml:space="preserve" text-anchor="middle" x="282" y="-6.5" font-family="Helvetica,sans-Serif" font-size="10.00">limits</text>
</a>
</g>
</g>
<!-- Node15&#45;&gt;Node22 -->
<g id="edge26_Node000015_Node000022" class="edge">
<title>Node15&#45;&gt;Node22</title>
<g id="a_edge26_Node000015_Node000022"><a xlink:title=" ">
<path fill="none" stroke="#63b8ff" d="M241.54,-55.59C248.28,-48.16 257.89,-37.58 266.04,-28.58"/>
<polygon fill="#63b8ff" stroke="#63b8ff" points="268.42,-31.18 272.55,-21.42 263.23,-26.47 268.42,-31.18"/>
</a>
</g>
</g>
<!-- Node26&#45;&gt;Node7 -->
<g id="edge37_Node000026_Node000007" class="edge">
<title>Node26&#45;&gt;Node7</title>
<g id="a_edge37_Node000026_Node000007"><a xlink:title=" ">
<path fill="none" stroke="#63b8ff" d="M202.5,-111.59C189.18,-103.51 169.72,-91.71 154.17,-82.27"/>
<polygon fill="#63b8ff" stroke="#63b8ff" points="156.28,-79.46 145.92,-77.26 152.65,-85.44 156.28,-79.46"/>
</a>
</g>
</g>
<!-- Node26&#45;&gt;Node15 -->
<g id="edge36_Node000026_Node000015" class="edge">
<title>Node26&#45;&gt;Node15</title>
<g id="a_edge36_Node000026_Node000015"><a xlink:title=" ">
<path fill="none" stroke="#63b8ff" d="M220.61,-111.59C222.48,-104.86 225.07,-95.53 227.4,-87.15"/>
<polygon fill="#63b8ff" stroke="#63b8ff" points="230.71,-88.33 230.01,-77.76 223.96,-86.46 230.71,-88.33"/>
</a>
</g>
</g>
</g>
</svg>

<g id="navigator" transform="translate(0 0)" fill="#404254">
  <rect fill="#f2f5e9" fill-opacity="0.5" stroke="#606060" stroke-width=".5" x="0" y="0" width="60" height="60"/>
  <use id="zoomplus" xlink:href="#zoomPlus" x="17" y="9" onmousedown="handleZoom(evt,'in')"/>
  <use id="zoomminus" xlink:href="#zoomMin" x="42" y="9" onmousedown="handleZoom(evt,'out')"/>
  <use id="reset" xlink:href="#resetDef" x="30" y="36" onmousedown="handleReset()"/>
   <use id="arrowup" xlink:href="#arrowUp" x="0" y="0" onmousedown="handlePan(0,-1)"/>
  <use id="arrowright" xlink:href="#arrowRight" x="0" y="0" onmousedown="handlePan(1,0)"/>
  <use id="arrowdown" xlink:href="#arrowDown" x="0" y="0" onmousedown="handlePan(0,1)"/>
  <use id="arrowleft" xlink:href="#arrowLeft" x="0" y="0" onmousedown="handlePan(-1,0)"/>
</g>
<svg viewBox="0 0 15 15" width="100%" height="30px" preserveAspectRatio="xMaxYMin meet">
 <g id="arrow_out" transform="scale(0.3 0.3)">
  <a xlink:href="calculate_8cpp__incl_org.svg" target="_base">
   <rect id="button" ry="5" rx="5" y="6" x="6" height="38" width="38"
        fill="#f2f5e9" fill-opacity="0.5" stroke="#606060" stroke-width="1.0"/>
   <path id="arrow"
     d="M 11.500037,31.436501 C 11.940474,20.09759 22.043105,11.32322 32.158766,21.979434 L 37.068811,17.246167 C 37.068811,17.246167 37.088388,32 37.088388,32 L 22.160133,31.978069 C 22.160133,31.978069 26.997745,27.140456 26.997745,27.140456 C 18.528582,18.264221 13.291696,25.230495 11.500037,31.436501 z"
     style="fill:#404040;"/>
  </a>
 </g>
</svg>

<style type='text/css'>
<![CDATA[
[data-mouse-over-selected='false'] { opacity: 0.7; }
[data-mouse-over-selected='true']  { opacity: 1.0; }
]]>
</style>
<script type="application/ecmascript"><![CDATA[
document.addEventListener('DOMContentLoaded', (event) => {
  highlightEdges();
  highlightAdjacentNodes();
});
]]></script>
</svg>
