<?xml version="1.0" encoding="UTF-8" standalone="no"?>
<!DOCTYPE svg PUBLIC "-//W3C//DTD SVG 1.1//EN"
 "http://www.w3.org/Graphics/SVG/1.1/DTD/svg11.dtd">
<!-- Generated by graphviz version 15.1.1 (20260805.0921)
 -->
<!-- Title: OOP_3/calculate.h Pages: 1 -->
<svg width="255pt" height="140pt"
 viewBox="0.00 0.00 255.00 140.00" xmlns="http://www.w3.org/2000/svg" xmlns:xlink="http://www.w3.org/1999/xlink">
<g id="graph0" class="graph" transform="scale(1 1) rotate(0) translate(4 136)">
<title>OOP_3/calculate.h</title>
<!-- Node1 -->
<g id="Node000001" class="node">
<title>Node1</title>
<g id="a_Node000001"><a xlink:title=" ">
<polygon fill="#999999" stroke="#666666" points="142.38,-132 43.87,-132 43.87,-112 142.38,-112 142.38,-132"/>
<text xml:space="preserve" text-anchor="middle" x="93.12" y="-118.5" font-family="Helvetica,sans-Serif" font-size="10.00">OOP_3/calculate.h</text>
</a>
</g>
</g>
<!-- Node2 -->
<g id="Node000002" class="node">
<title>Node2</title>
<g id="a_Node000002"><a xlink:href="_o_o_p__3_8cpp.html" target="_top" xlink:title=" ">
<polygon fill="white" stroke="#666666" points="102.25,-20 0,-20 0,0 102.25,0 102.25,-20"/>
<text xml:space="preserve" text-anchor="middle" x="51.12" y="-6.5" font-family="Helvetica,sans-Serif" font-size="10.00">OOP_3/OOP_3.cpp</text>
</a>
</g>
</g>
<!-- Node1&#45;&gt;Node2 -->
<g id="edge1_Node000001_Node000002" class="edge">
<title>Node1&#45;&gt;Node2</title>
<g id="a_edge1_Node000001_Node000002"><a xlink:title=" ">
<path fill="none" stroke="#63b8ff" d="M60.14,-106.13C48.11,-98.88 35.83,-88.9 29.12,-76 19.35,-57.18 33.81,-33.11 43.52,-20.18"/>
<polygon fill="#63b8ff" stroke="#63b8ff" points="58.28,-109.1 68.73,-110.85 61.65,-102.96 58.28,-109.1"/>
</a>
</g>
</g>
<!-- Node3 -->
<g id="Node000003" class="node">
<title>Node3</title>
<g id="a_Node000003"><a xlink:href="calculate_8cpp.html" target="_top" xlink:title=" ">
<polygon fill="white" stroke="#666666" points="147.62,-76 38.62,-76 38.62,-56 147.62,-56 147.62,-76"/>
<text xml:space="preserve" text-anchor="middle" x="93.12" y="-62.5" font-family="Helvetica,sans-Serif" font-size="10.00">OOP_3/calculate.cpp</text>
</a>
</g>
</g>
<!-- Node1&#45;&gt;Node3 -->
<g id="edge2_Node000001_Node000003" class="edge">
<title>Node1&#45;&gt;Node3</title>
<g id="a_edge2_Node000001_Node000003"><a xlink:title=" ">
<path fill="none" stroke="#63b8ff" d="M93.12,-100.13C93.12,-91.9 93.12,-82.85 93.12,-76.3"/>
<polygon fill="#63b8ff" stroke="#63b8ff" points="89.63,-100.08 93.13,-110.08 96.63,-100.08 89.63,-100.08"/>
</a>
</g>
</g>
<!-- Node4 -->
<g id="Node000004" class="node">
<title>Node4</title>
<g id="a_Node000004"><a xlink:href="test_8h.html" target="_top" xlink:title=" ">
<polygon fill="white" stroke="#666666" points="242.12,-76 166.12,-76 166.12,-56 242.12,-56 242.12,-76"/>
<text xml:space="preserve" text-anchor="middle" x="204.12" y="-62.5" font-family="Helvetica,sans-Serif" font-size="10.00">OOP_3/test.h</text>
</a>
</g>
</g>
<!-- Node1&#45;&gt;Node4 -->
<g id="edge3_Node000001_Node000004" class="edge">
<title>Node1&#45;&gt;Node4</title>
<g id="a_edge3_Node000001_Node000004"><a xlink:title=" ">
<path fill="none" stroke="#63b8ff" d="M122.7,-106.61C142.32,-97.07 167.51,-84.81 184.64,-76.48"/>
<polygon fill="#63b8ff" stroke="#63b8ff" points="121.28,-103.41 113.82,-110.93 124.34,-109.7 121.28,-103.41"/>
</a>
</g>
</g>
<!-- Node4&#45;&gt;Node2 -->
<g id="edge4_Node000004_Node000002" class="edge">
<title>Node4&#45;&gt;Node2</title>
<g id="a_edge4_Node000004_Node000002"><a xlink:title=" ">
<path fill="none" stroke="#63b8ff" d="M166.7,-51.79C139.24,-42.1 102.58,-29.16 77.98,-20.48"/>
<polygon fill="#63b8ff" stroke="#63b8ff" points="165.45,-55.06 176.05,-55.09 167.78,-48.46 165.45,-55.06"/>
</a>
</g>
</g>
<!-- Node5 -->
<g id="Node000005" class="node">
<title>Node5</title>
<g id="a_Node000005"><a xlink:href="test_8cpp.html" target="_top" xlink:title=" ">
<polygon fill="white" stroke="#666666" points="247.38,-20 160.88,-20 160.88,0 247.38,0 247.38,-20"/>
<text xml:space="preserve" text-anchor="middle" x="204.12" y="-6.5" font-family="Helvetica,sans-Serif" font-size="10.00">OOP_3/test.cpp</text>
</a>
</g>
</g>
<!-- Node4&#45;&gt;Node5 -->
<g id="edge5_Node000004_Node000005" class="edge">
<title>Node4&#45;&gt;Node5</title>
<g id="a_edge5_Node000004_Node000005"><a xlink:title=" ">
<path fill="none" stroke="#63b8ff" d="M204.12,-44.13C204.12,-35.9 204.12,-26.85 204.12,-20.3"/>
<polygon fill="#63b8ff" stroke="#63b8ff" points="200.63,-44.08 204.13,-54.08 207.63,-44.08 200.63,-44.08"/>
</a>
</g>
</g>
</g>
</svg>
