<?xml version="1.0" encoding="UTF-8" standalone="no"?>
<!DOCTYPE svg PUBLIC "-//W3C//DTD SVG 1.1//EN"
 "http://www.w3.org/Graphics/SVG/1.1/DTD/svg11.dtd">
<!-- Generated by graphviz version 15.1.1 (20260805.0921)
 -->
<!-- Title: OOP_3/file.cpp Pages: 1 -->
<svg width="978pt" height="308pt"
 viewBox="0.00 0.00 978.00 308.00" xmlns="http://www.w3.org/2000/svg" xmlns:xlink="http://www.w3.org/1999/xlink">
<g id="graph0" class="graph" transform="scale(1 1) rotate(0) translate(4 304)">
<title>OOP_3/file.cpp</title>
<!-- Node1 -->
<g id="Node000001" class="node">
<title>Node1</title>
<g id="a_Node000001"><a xlink:title=" ">
<polygon fill="#999999" stroke="#666666" points="723.12,-300 640.38,-300 640.38,-280 723.12,-280 723.12,-300"/>
<text xml:space="preserve" text-anchor="middle" x="681.75" y="-286.5" font-family="Helvetica,sans-Serif" font-size="10.00">OOP_3/file.cpp</text>
</a>
</g>
</g>
<!-- Node2 -->
<g id="Node000002" class="node">
<title>Node2</title>
<g id="a_Node000002"><a xlink:href="file_8h.html" target="_top" xlink:title=" ">
<polygon fill="white" stroke="#666666" points="700.25,-244 663.25,-244 663.25,-224 700.25,-224 700.25,-244"/>
<text xml:space="preserve" text-anchor="middle" x="681.75" y="-230.5" font-family="Helvetica,sans-Serif" font-size="10.00">file.h</text>
</a>
</g>
</g>
<!-- Node1&#45;&gt;Node2 -->
<g id="edge1_Node000001_Node000002" class="edge">
<title>Node1&#45;&gt;Node2</title>
<g id="a_edge1_Node000001_Node000002"><a xlink:title=" ">
<path fill="none" stroke="#63b8ff" d="M681.75,-279.59C681.75,-273.01 681.75,-263.96 681.75,-255.73"/>
<polygon fill="#63b8ff" stroke="#63b8ff" points="685.25,-255.81 681.75,-245.81 678.25,-255.81 685.25,-255.81"/>
</a>
</g>
</g>
<!-- Node3 -->
<g id="Node000003" class="node">
<title>Node3</title>
<g id="a_Node000003"><a xlink:href="main_8h.html" target="_top" xlink:title=" ">
<polygon fill="white" stroke="#666666" points="323.38,-188 278.12,-188 278.12,-168 323.38,-168 323.38,-188"/>
<text xml:space="preserve" text-anchor="middle" x="300.75" y="-174.5" font-family="Helvetica,sans-Serif" font-size="10.00">main.h</text>
</a>
</g>
</g>
<!-- Node2&#45;&gt;Node3 -->
<g id="edge2_Node000002_Node000003" class="edge">
<title>Node2&#45;&gt;Node3</title>
<g id="a_edge2_Node000002_Node000003"><a xlink:title=" ">
<path fill="none" stroke="#63b8ff" d="M662.86,-230.32C602.3,-221.74 412.47,-194.83 334.6,-183.8"/>
<polygon fill="#63b8ff" stroke="#63b8ff" points="335.41,-180.38 325.02,-182.44 334.43,-187.31 335.41,-180.38"/>
</a>
</g>
</g>
<!-- Node5 -->
<g id="Node000005" class="node">
<title>Node5</title>
<g id="a_Node000005"><a xlink:title=" ">
<polygon fill="#e0e0e0" stroke="#999999" points="53.5,-20 0,-20 0,0 53.5,0 53.5,-20"/>
<text xml:space="preserve" text-anchor="middle" x="26.75" y="-6.5" font-family="Helvetica,sans-Serif" font-size="10.00">iostream</text>
</a>
</g>
</g>
<!-- Node2&#45;&gt;Node5 -->
<g id="edge38_Node000002_Node000005" class="edge">
<title>Node2&#45;&gt;Node5</title>
<g id="a_edge38_Node000002_Node000005"><a xlink:title=" ">
<path fill="none" stroke="#63b8ff" d="M662.89,-233.13C575.91,-233.47 213.38,-232.2 110.75,-188 52.86,-163.07 36.89,-137.65 23.75,-76 20.64,-61.42 21.54,-44.59 23.13,-31.71"/>
<polygon fill="#63b8ff" stroke="#63b8ff" points="26.59,-32.29 24.61,-21.88 19.66,-31.24 26.59,-32.29"/>
</a>
</g>
</g>
<!-- Node6 -->
<g id="Node000006" class="node">
<title>Node6</title>
<g id="a_Node000006"><a xlink:title=" ">
<polygon fill="#e0e0e0" stroke="#999999" points="135.75,-20 95.75,-20 95.75,0 135.75,0 135.75,-20"/>
<text xml:space="preserve" text-anchor="middle" x="115.75" y="-6.5" font-family="Helvetica,sans-Serif" font-size="10.00">string</text>
</a>
</g>
</g>
<!-- Node2&#45;&gt;Node6 -->
<g id="edge42_Node000002_Node000006" class="edge">
<title>Node2&#45;&gt;Node6</title>
<g id="a_edge42_Node000002_Node000006"><a xlink:title=" ">
<path fill="none" stroke="#63b8ff" d="M662.81,-233.2C566.71,-233.76 134.6,-230.73 58.75,-132 49.66,-120.17 50.53,-85.15 65.75,-56 71.67,-44.66 81.67,-34.79 91.18,-27.21"/>
<polygon fill="#63b8ff" stroke="#63b8ff" points="93.19,-30.08 99.14,-21.31 89.02,-24.45 93.19,-30.08"/>
</a>
</g>
</g>
<!-- Node7 -->
<g id="Node000007" class="node">
<title>Node7</title>
<g id="a_Node000007"><a xlink:title=" ">
<polygon fill="#e0e0e0" stroke="#999999" points="608.25,-76 565.25,-76 565.25,-56 608.25,-56 608.25,-76"/>
<text xml:space="preserve" text-anchor="middle" x="586.75" y="-62.5" font-family="Helvetica,sans-Serif" font-size="10.00">vector</text>
</a>
</g>
</g>
<!-- Node2&#45;&gt;Node7 -->
<g id="edge41_Node000002_Node000007" class="edge">
<title>Node2&#45;&gt;Node7</title>
<g id="a_edge41_Node000002_Node000007"><a xlink:title=" ">
<path fill="none" stroke="#63b8ff" d="M678.36,-223.77C670.52,-202.95 649.84,-151.08 624.75,-112 618.64,-102.48 610.7,-92.77 603.67,-84.83"/>
<polygon fill="#63b8ff" stroke="#63b8ff" points="606.34,-82.56 597.01,-77.54 601.17,-87.29 606.34,-82.56"/>
</a>
</g>
</g>
<!-- Node13 -->
<g id="Node000013" class="node">
<title>Node13</title>
<g id="a_Node000013"><a xlink:title=" ">
<polygon fill="#e0e0e0" stroke="#999999" points="412.12,-20 353.38,-20 353.38,0 412.12,0 412.12,-20"/>
<text xml:space="preserve" text-anchor="middle" x="382.75" y="-6.5" font-family="Helvetica,sans-Serif" font-size="10.00">stdexcept</text>
</a>
</g>
</g>
<!-- Node2&#45;&gt;Node13 -->
<g id="edge45_Node000002_Node000013" class="edge">
<title>Node2&#45;&gt;Node13</title>
<g id="a_edge45_Node000002_Node000013"><a xlink:title=" ">
<path fill="none" stroke="#63b8ff" d="M685.64,-223.85C697.21,-195.04 728.02,-105.12 684.75,-56 647.68,-13.91 496.18,-28.98 423.87,-20.07"/>
<polygon fill="#63b8ff" stroke="#63b8ff" points="424.47,-16.63 414.06,-18.58 423.42,-23.55 424.47,-16.63"/>
</a>
</g>
</g>
<!-- Node22 -->
<g id="Node000022" class="node">
<title>Node22</title>
<g id="a_Node000022"><a xlink:title=" ">
<polygon fill="#e0e0e0" stroke="#999999" points="970.38,-20 931.12,-20 931.12,0 970.38,0 970.38,-20"/>
<text xml:space="preserve" text-anchor="middle" x="950.75" y="-6.5" font-family="Helvetica,sans-Serif" font-size="10.00">limits</text>
</a>
</g>
</g>
<!-- Node2&#45;&gt;Node22 -->
<g id="edge44_Node000002_Node000022" class="edge">
<title>Node2&#45;&gt;Node22</title>
<g id="a_edge44_Node000002_Node000022"><a xlink:title=" ">
<path fill="none" stroke="#63b8ff" d="M692.97,-223.74C734.15,-189.75 877.42,-71.52 930.64,-27.6"/>
<polygon fill="#63b8ff" stroke="#63b8ff" points="932.83,-30.32 938.32,-21.26 928.38,-24.93 932.83,-30.32"/>
</a>
</g>
</g>
<!-- Node24 -->
<g id="Node000024" class="node">
<title>Node24</title>
<g id="a_Node000024"><a xlink:title=" ">
<polygon fill="#e0e0e0" stroke="#999999" points="675.62,-76 625.88,-76 625.88,-56 675.62,-56 675.62,-76"/>
<text xml:space="preserve" text-anchor="middle" x="650.75" y="-62.5" font-family="Helvetica,sans-Serif" font-size="10.00">iomanip</text>
</a>
</g>
</g>
<!-- Node2&#45;&gt;Node24 -->
<g id="edge43_Node000002_Node000024" class="edge">
<title>Node2&#45;&gt;Node24</title>
<g id="a_edge43_Node000002_Node000024"><a xlink:title=" ">
<path fill="none" stroke="#63b8ff" d="M679.99,-223.6C675.11,-197.46 661.3,-123.48 654.55,-87.36"/>
<polygon fill="#63b8ff" stroke="#63b8ff" points="658.04,-86.97 652.76,-77.79 651.16,-88.26 658.04,-86.97"/>
</a>
</g>
</g>
<!-- Node27 -->
<g id="Node000027" class="node">
<title>Node27</title>
<g id="a_Node000027"><a xlink:title=" ">
<polygon fill="#e0e0e0" stroke="#999999" points="889.25,-188 840.25,-188 840.25,-168 889.25,-168 889.25,-188"/>
<text xml:space="preserve" text-anchor="middle" x="864.75" y="-174.5" font-family="Helvetica,sans-Serif" font-size="10.00">fstream</text>
</a>
</g>
</g>
<!-- Node2&#45;&gt;Node27 -->
<g id="edge39_Node000002_Node000027" class="edge">
<title>Node2&#45;&gt;Node27</title>
<g id="a_edge39_Node000002_Node000027"><a xlink:title=" ">
<path fill="none" stroke="#63b8ff" d="M700.64,-227.42C730.9,-218.5 790.71,-200.85 829.16,-189.5"/>
<polygon fill="#63b8ff" stroke="#63b8ff" points="829.82,-192.96 838.42,-186.77 827.84,-186.24 829.82,-192.96"/>
</a>
</g>
</g>
<!-- Node28 -->
<g id="Node000028" class="node">
<title>Node28</title>
<g id="a_Node000028"><a xlink:title=" ">
<polygon fill="#e0e0e0" stroke="#999999" points="958.38,-188 907.12,-188 907.12,-168 958.38,-168 958.38,-188"/>
<text xml:space="preserve" text-anchor="middle" x="932.75" y="-174.5" font-family="Helvetica,sans-Serif" font-size="10.00">sstream</text>
</a>
</g>
</g>
<!-- Node2&#45;&gt;Node28 -->
<g id="edge40_Node000002_Node000028" class="edge">
<title>Node2&#45;&gt;Node28</title>
<g id="a_edge40_Node000002_Node000028"><a xlink:title=" ">
<path fill="none" stroke="#63b8ff" d="M700.69,-229.43C736.79,-222.55 818.16,-206.69 895.86,-188.59"/>
<polygon fill="#63b8ff" stroke="#63b8ff" points="896.39,-192.06 905.32,-186.37 894.79,-185.25 896.39,-192.06"/>
</a>
</g>
</g>
<!-- Node4 -->
<g id="Node000004" class="node">
<title>Node4</title>
<g id="a_Node000004"><a xlink:title=" ">
<polygon fill="#e0e0e0" stroke="#999999" points="143,-132 80.5,-132 80.5,-112 143,-112 143,-132"/>
<text xml:space="preserve" text-anchor="middle" x="111.75" y="-118.5" font-family="Helvetica,sans-Serif" font-size="10.00">windows.h</text>
</a>
</g>
</g>
<!-- Node3&#45;&gt;Node4 -->
<g id="edge3_Node000003_Node000004" class="edge">
<title>Node3&#45;&gt;Node4</title>
<g id="a_edge3_Node000003_Node000004"><a xlink:title=" ">
<path fill="none" stroke="#63b8ff" d="M277.95,-170.49C247.39,-161.75 192.56,-146.09 154.26,-135.15"/>
<polygon fill="#63b8ff" stroke="#63b8ff" points="155.48,-131.85 144.9,-132.47 153.55,-138.58 155.48,-131.85"/>
</a>
</g>
</g>
<!-- Node3&#45;&gt;Node5 -->
<g id="edge4_Node000003_Node000005" class="edge">
<title>Node3&#45;&gt;Node5</title>
<g id="a_edge4_Node000003_Node000005"><a xlink:title=" ">
<path fill="none" stroke="#63b8ff" d="M278.02,-175.81C224.08,-172.51 90.54,-161.5 58.75,-132 30.7,-105.97 26.1,-58.49 25.96,-31.39"/>
<polygon fill="#63b8ff" stroke="#63b8ff" points="29.45,-31.79 26.13,-21.73 22.45,-31.67 29.45,-31.79"/>
</a>
</g>
</g>
<!-- Node3&#45;&gt;Node6 -->
<g id="edge5_Node000003_Node000006" class="edge">
<title>Node3&#45;&gt;Node6</title>
<g id="a_edge5_Node000003_Node000006"><a xlink:title=" ">
<path fill="none" stroke="#63b8ff" d="M277.95,-176.06C225.3,-173.35 97.75,-163.6 71.75,-132 46.31,-101.08 78.01,-54.19 99.35,-28.82"/>
<polygon fill="#63b8ff" stroke="#63b8ff" points="101.92,-31.19 105.88,-21.36 96.65,-26.58 101.92,-31.19"/>
</a>
</g>
</g>
<!-- Node3&#45;&gt;Node7 -->
<g id="edge6_Node000003_Node000007" class="edge">
<title>Node3&#45;&gt;Node7</title>
<g id="a_edge6_Node000003_Node000007"><a xlink:title=" ">
<path fill="none" stroke="#63b8ff" d="M323.74,-174.72C361.35,-170.35 437.76,-158.74 496.75,-132 523.86,-119.71 551,-98.6 568.28,-83.78"/>
<polygon fill="#63b8ff" stroke="#63b8ff" points="570.47,-86.52 575.67,-77.29 565.85,-81.26 570.47,-86.52"/>
</a>
</g>
</g>
<!-- Node8 -->
<g id="Node000008" class="node">
<title>Node8</title>
<g id="a_Node000008"><a xlink:title=" ">
<polygon fill="#e0e0e0" stroke="#999999" points="227.15,-132 198.35,-132 198.35,-112 227.15,-112 227.15,-132"/>
<text xml:space="preserve" text-anchor="middle" x="212.75" y="-118.5" font-family="Helvetica,sans-Serif" font-size="10.00">list</text>
</a>
</g>
</g>
<!-- Node3&#45;&gt;Node8 -->
<g id="edge7_Node000003_Node000008" class="edge">
<title>Node3&#45;&gt;Node8</title>
<g id="a_edge7_Node000003_Node000008"><a xlink:title=" ">
<path fill="none" stroke="#63b8ff" d="M285.42,-167.59C272.09,-159.41 252.54,-147.42 237.08,-137.93"/>
<polygon fill="#63b8ff" stroke="#63b8ff" points="239.25,-135.16 228.9,-132.91 235.59,-141.12 239.25,-135.16"/>
</a>
</g>
</g>
<!-- Node9 -->
<g id="Node000009" class="node">
<title>Node9</title>
<g id="a_Node000009"><a xlink:title=" ">
<polygon fill="#e0e0e0" stroke="#999999" points="287.88,-132 245.62,-132 245.62,-112 287.88,-112 287.88,-132"/>
<text xml:space="preserve" text-anchor="middle" x="266.75" y="-118.5" font-family="Helvetica,sans-Serif" font-size="10.00">deque</text>
</a>
</g>
</g>
<!-- Node3&#45;&gt;Node9 -->
<g id="edge8_Node000003_Node000009" class="edge">
<title>Node3&#45;&gt;Node9</title>
<g id="a_edge8_Node000003_Node000009"><a xlink:title=" ">
<path fill="none" stroke="#63b8ff" d="M294.83,-167.59C290.39,-160.55 284.17,-150.67 278.71,-142"/>
<polygon fill="#63b8ff" stroke="#63b8ff" points="281.7,-140.18 273.41,-133.58 275.78,-143.91 281.7,-140.18"/>
</a>
</g>
</g>
<!-- Node10 -->
<g id="Node000010" class="node">
<title>Node10</title>
<g id="a_Node000010"><a xlink:title=" ">
<polygon fill="#e0e0e0" stroke="#999999" points="363.75,-132 305.75,-132 305.75,-112 363.75,-112 363.75,-132"/>
<text xml:space="preserve" text-anchor="middle" x="334.75" y="-118.5" font-family="Helvetica,sans-Serif" font-size="10.00">exception</text>
</a>
</g>
</g>
<!-- Node3&#45;&gt;Node10 -->
<g id="edge9_Node000003_Node000010" class="edge">
<title>Node3&#45;&gt;Node10</title>
<g id="a_edge9_Node000003_Node000010"><a xlink:title=" ">
<path fill="none" stroke="#63b8ff" d="M306.67,-167.59C311.11,-160.55 317.33,-150.67 322.79,-142"/>
<polygon fill="#63b8ff" stroke="#63b8ff" points="325.72,-143.91 328.09,-133.58 319.8,-140.18 325.72,-143.91"/>
</a>
</g>
</g>
<!-- Node11 -->
<g id="Node000011" class="node">
<title>Node11</title>
<g id="a_Node000011"><a xlink:title=" ">
<polygon fill="#e0e0e0" stroke="#999999" points="491.62,-20 429.88,-20 429.88,0 491.62,0 491.62,-20"/>
<text xml:space="preserve" text-anchor="middle" x="460.75" y="-6.5" font-family="Helvetica,sans-Serif" font-size="10.00">type_traits</text>
</a>
</g>
</g>
<!-- Node3&#45;&gt;Node11 -->
<g id="edge10_Node000003_Node000011" class="edge">
<title>Node3&#45;&gt;Node11</title>
<g id="a_edge10_Node000003_Node000011"><a xlink:title=" ">
<path fill="none" stroke="#63b8ff" d="M323.78,-169.5C340.67,-162.65 362.39,-150.69 372.75,-132 377.06,-124.23 376.09,-120.24 372.75,-112 364.36,-91.32 346.14,-96.68 337.75,-76 334.41,-67.76 332.66,-63.29 337.75,-56 347.39,-42.2 387.02,-29.32 418.72,-20.9"/>
<polygon fill="#63b8ff" stroke="#63b8ff" points="419.27,-24.37 428.08,-18.49 417.52,-17.59 419.27,-24.37"/>
</a>
</g>
</g>
<!-- Node12 -->
<g id="Node000012" class="node">
<title>Node12</title>
<g id="a_Node000012"><a xlink:href="zmogus_8h.html" target="_top" xlink:title="Abstrakti bazinė klasė, aprašanti bendrus žmogaus duomenis.">
<polygon fill="white" stroke="#666666" points="200.12,-76 141.38,-76 141.38,-56 200.12,-56 200.12,-76"/>
<text xml:space="preserve" text-anchor="middle" x="170.75" y="-62.5" font-family="Helvetica,sans-Serif" font-size="10.00">zmogus.h</text>
</a>
</g>
</g>
<!-- Node3&#45;&gt;Node12 -->
<g id="edge11_Node000003_Node000012" class="edge">
<title>Node3&#45;&gt;Node12</title>
<g id="a_edge11_Node000003_Node000012"><a xlink:title=" ">
<path fill="none" stroke="#63b8ff" d="M277.82,-173.72C252.7,-168.93 212.9,-157.61 189.75,-132 178.76,-119.85 174.11,-101.67 172.15,-87.62"/>
<polygon fill="#63b8ff" stroke="#63b8ff" points="175.63,-87.28 171.15,-77.68 168.67,-87.98 175.63,-87.28"/>
</a>
</g>
</g>
<!-- Node14 -->
<g id="Node000014" class="node">
<title>Node14</title>
<g id="a_Node000014"><a xlink:href="studentas_8h.html" target="_top" xlink:title="Išvestinė klasė studentas — studento duomenys ir galutinių balų skaičiavimas.">
<polygon fill="white" stroke="#666666" points="487.25,-132 420.25,-132 420.25,-112 487.25,-112 487.25,-132"/>
<text xml:space="preserve" text-anchor="middle" x="453.75" y="-118.5" font-family="Helvetica,sans-Serif" font-size="10.00">studentas.h</text>
</a>
</g>
</g>
<!-- Node3&#45;&gt;Node14 -->
<g id="edge15_Node000003_Node000014" class="edge">
<title>Node3&#45;&gt;Node14</title>
<g id="a_edge15_Node000003_Node000014"><a xlink:title=" ">
<path fill="none" stroke="#63b8ff" d="M323.66,-168.92C348.2,-160.25 387.53,-146.37 416.52,-136.14"/>
<polygon fill="#63b8ff" stroke="#63b8ff" points="417.39,-139.55 425.65,-132.92 415.06,-132.94 417.39,-139.55"/>
</a>
</g>
</g>
<!-- Node26 -->
<g id="Node000026" class="node">
<title>Node26</title>
<g id="a_Node000026"><a xlink:href="konteineris_8h.html" target="_top" xlink:title="Konteinerio tipo perjungimas tarp std::vector ir nuosavos Vector.">
<polygon fill="white" stroke="#666666" points="615.5,-132 544,-132 544,-112 615.5,-112 615.5,-132"/>
<text xml:space="preserve" text-anchor="middle" x="579.75" y="-118.5" font-family="Helvetica,sans-Serif" font-size="10.00">konteineris.h</text>
</a>
</g>
</g>
<!-- Node3&#45;&gt;Node26 -->
<g id="edge35_Node000003_Node000026" class="edge">
<title>Node3&#45;&gt;Node26</title>
<g id="a_edge35_Node000003_Node000026"><a xlink:title=" ">
<path fill="none" stroke="#63b8ff" d="M323.58,-172.58C369.06,-163.78 471.81,-143.89 532.45,-132.15"/>
<polygon fill="#63b8ff" stroke="#63b8ff" points="532.99,-135.62 542.14,-130.28 531.66,-128.74 532.99,-135.62"/>
</a>
</g>
</g>
<!-- Node12&#45;&gt;Node5 -->
<g id="edge13_Node000012_Node000005" class="edge">
<title>Node12&#45;&gt;Node5</title>
<g id="a_edge13_Node000012_Node000005"><a xlink:title=" ">
<path fill="none" stroke="#63b8ff" d="M145.67,-55.59C122.68,-46.97 88.4,-34.12 62.54,-24.42"/>
<polygon fill="#63b8ff" stroke="#63b8ff" points="64.04,-21.25 53.45,-21.01 61.58,-27.8 64.04,-21.25"/>
</a>
</g>
</g>
<!-- Node12&#45;&gt;Node6 -->
<g id="edge12_Node000012_Node000006" class="edge">
<title>Node12&#45;&gt;Node6</title>
<g id="a_edge12_Node000012_Node000006"><a xlink:title=" ">
<path fill="none" stroke="#63b8ff" d="M161.17,-55.59C153.52,-48.08 142.59,-37.35 133.37,-28.3"/>
<polygon fill="#63b8ff" stroke="#63b8ff" points="135.89,-25.87 126.3,-21.36 130.98,-30.86 135.89,-25.87"/>
</a>
</g>
</g>
<!-- Node12&#45;&gt;Node13 -->
<g id="edge14_Node000012_Node000013" class="edge">
<title>Node12&#45;&gt;Node13</title>
<g id="a_edge14_Node000012_Node000013"><a xlink:title=" ">
<path fill="none" stroke="#63b8ff" d="M200.23,-57.49C237.15,-48.09 300.58,-31.93 342.09,-21.36"/>
<polygon fill="#63b8ff" stroke="#63b8ff" points="342.89,-24.77 351.71,-18.91 341.16,-17.98 342.89,-24.77"/>
</a>
</g>
</g>
<!-- Node14&#45;&gt;Node5 -->
<g id="edge29_Node000014_Node000005" class="edge">
<title>Node14&#45;&gt;Node5</title>
<g id="a_edge29_Node000014_Node000005"><a xlink:title=" ">
<path fill="none" stroke="#63b8ff" d="M419.93,-117.05C342.98,-107.96 159.43,-85.58 132.75,-76 100.62,-64.47 67.74,-42.38 47.3,-27.18"/>
<polygon fill="#63b8ff" stroke="#63b8ff" points="49.6,-24.53 39.52,-21.26 45.36,-30.1 49.6,-24.53"/>
</a>
</g>
</g>
<!-- Node14&#45;&gt;Node6 -->
<g id="edge27_Node000014_Node000006" class="edge">
<title>Node14&#45;&gt;Node6</title>
<g id="a_edge27_Node000014_Node000006"><a xlink:title=" ">
<path fill="none" stroke="#63b8ff" d="M424.64,-111.53C361.35,-90.93 211.68,-42.22 146.73,-21.08"/>
<polygon fill="#63b8ff" stroke="#63b8ff" points="148.01,-17.82 137.42,-18.05 145.85,-24.48 148.01,-17.82"/>
</a>
</g>
</g>
<!-- Node14&#45;&gt;Node7 -->
<g id="edge28_Node000014_Node000007" class="edge">
<title>Node14&#45;&gt;Node7</title>
<g id="a_edge28_Node000014_Node000007"><a xlink:title=" ">
<path fill="none" stroke="#63b8ff" d="M476.92,-111.59C498.47,-102.84 530.79,-89.72 554.79,-79.97"/>
<polygon fill="#63b8ff" stroke="#63b8ff" points="555.82,-83.34 563.77,-76.33 553.18,-76.85 555.82,-83.34"/>
</a>
</g>
</g>
<!-- Node14&#45;&gt;Node12 -->
<g id="edge16_Node000014_Node000012" class="edge">
<title>Node14&#45;&gt;Node12</title>
<g id="a_edge16_Node000014_Node000012"><a xlink:title=" ">
<path fill="none" stroke="#63b8ff" d="M419.89,-114.54C367.71,-104.58 267.78,-85.52 211.64,-74.8"/>
<polygon fill="#63b8ff" stroke="#63b8ff" points="212.32,-71.37 201.84,-72.93 211.01,-78.25 212.32,-71.37"/>
</a>
</g>
</g>
<!-- Node14&#45;&gt;Node13 -->
<g id="edge33_Node000014_Node000013" class="edge">
<title>Node14&#45;&gt;Node13</title>
<g id="a_edge33_Node000014_Node000013"><a xlink:title=" ">
<path fill="none" stroke="#63b8ff" d="M462.76,-111.65C474.27,-98.54 491.39,-74.23 479.75,-56 472.95,-45.35 445.95,-33.3 422.15,-24.35"/>
<polygon fill="#63b8ff" stroke="#63b8ff" points="423.55,-21.13 412.95,-20.99 421.15,-27.71 423.55,-21.13"/>
</a>
</g>
</g>
<!-- Node15 -->
<g id="Node000015" class="node">
<title>Node15</title>
<g id="a_Node000015"><a xlink:href="_vector_8h.html" target="_top" xlink:title="Nuosava std::vector alternatyva — dinaminis masyvas.">
<polygon fill="white" stroke="#666666" points="783.75,-76 731.75,-76 731.75,-56 783.75,-56 783.75,-76"/>
<text xml:space="preserve" text-anchor="middle" x="757.75" y="-62.5" font-family="Helvetica,sans-Serif" font-size="10.00">Vector.h</text>
</a>
</g>
</g>
<!-- Node14&#45;&gt;Node15 -->
<g id="edge17_Node000014_Node000015" class="edge">
<title>Node14&#45;&gt;Node15</title>
<g id="a_edge17_Node000014_Node000015"><a xlink:title=" ">
<path fill="none" stroke="#63b8ff" d="M487.74,-114.96C545.11,-104.77 660.74,-84.23 720.34,-73.64"/>
<polygon fill="#63b8ff" stroke="#63b8ff" points="720.76,-77.13 729.99,-71.93 719.53,-70.23 720.76,-77.13"/>
</a>
</g>
</g>
<!-- Node19 -->
<g id="Node000019" class="node">
<title>Node19</title>
<g id="a_Node000019"><a xlink:title=" ">
<polygon fill="#e0e0e0" stroke="#999999" points="565.62,-20 509.88,-20 509.88,0 565.62,0 565.62,-20"/>
<text xml:space="preserve" text-anchor="middle" x="537.75" y="-6.5" font-family="Helvetica,sans-Serif" font-size="10.00">algorithm</text>
</a>
</g>
</g>
<!-- Node14&#45;&gt;Node19 -->
<g id="edge31_Node000014_Node000019" class="edge">
<title>Node14&#45;&gt;Node19</title>
<g id="a_edge31_Node000014_Node000019"><a xlink:title=" ">
<path fill="none" stroke="#63b8ff" d="M463.28,-111.78C472.14,-102.98 485.5,-89.15 495.75,-76 507.24,-61.27 518.64,-43.36 526.66,-30.07"/>
<polygon fill="#63b8ff" stroke="#63b8ff" points="529.67,-31.86 531.75,-21.48 523.64,-28.29 529.67,-31.86"/>
</a>
</g>
</g>
<!-- Node23 -->
<g id="Node000023" class="node">
<title>Node23</title>
<g id="a_Node000023"><a xlink:title=" ">
<polygon fill="#e0e0e0" stroke="#999999" points="471,-76 420.5,-76 420.5,-56 471,-56 471,-76"/>
<text xml:space="preserve" text-anchor="middle" x="445.75" y="-62.5" font-family="Helvetica,sans-Serif" font-size="10.00">numeric</text>
</a>
</g>
</g>
<!-- Node14&#45;&gt;Node23 -->
<g id="edge30_Node000014_Node000023" class="edge">
<title>Node14&#45;&gt;Node23</title>
<g id="a_edge30_Node000014_Node000023"><a xlink:title=" ">
<path fill="none" stroke="#63b8ff" d="M452.36,-111.59C451.37,-104.93 450.01,-95.75 448.78,-87.44"/>
<polygon fill="#63b8ff" stroke="#63b8ff" points="452.28,-87.17 447.35,-77.8 445.35,-88.2 452.28,-87.17"/>
</a>
</g>
</g>
<!-- Node14&#45;&gt;Node24 -->
<g id="edge32_Node000014_Node000024" class="edge">
<title>Node14&#45;&gt;Node24</title>
<g id="a_edge32_Node000014_Node000024"><a xlink:title=" ">
<path fill="none" stroke="#63b8ff" d="M487.62,-111.72C522.95,-102.03 578.17,-86.9 614.4,-76.96"/>
<polygon fill="#63b8ff" stroke="#63b8ff" points="615.27,-80.35 623.99,-74.33 613.42,-73.6 615.27,-80.35"/>
</a>
</g>
</g>
<!-- Node25 -->
<g id="Node000025" class="node">
<title>Node25</title>
<g id="a_Node000025"><a xlink:title=" ">
<polygon fill="#e0e0e0" stroke="#999999" points="402.62,-76 346.88,-76 346.88,-56 402.62,-56 402.62,-76"/>
<text xml:space="preserve" text-anchor="middle" x="374.75" y="-62.5" font-family="Helvetica,sans-Serif" font-size="10.00">charconv</text>
</a>
</g>
</g>
<!-- Node14&#45;&gt;Node25 -->
<g id="edge34_Node000014_Node000025" class="edge">
<title>Node14&#45;&gt;Node25</title>
<g id="a_edge34_Node000014_Node000025"><a xlink:title=" ">
<path fill="none" stroke="#63b8ff" d="M439.99,-111.59C428.39,-103.67 411.55,-92.16 397.89,-82.82"/>
<polygon fill="#63b8ff" stroke="#63b8ff" points="400.1,-80.09 389.87,-77.33 396.15,-85.87 400.1,-80.09"/>
</a>
</g>
</g>
<!-- Node15&#45;&gt;Node11 -->
<g id="edge24_Node000015_Node000011" class="edge">
<title>Node15&#45;&gt;Node11</title>
<g id="a_edge24_Node000015_Node000011"><a xlink:title=" ">
<path fill="none" stroke="#63b8ff" d="M731.54,-58.88C726.96,-57.87 722.22,-56.87 717.75,-56 625.27,-37.94 598.61,-38.66 502.8,-20.3"/>
<polygon fill="#63b8ff" stroke="#63b8ff" points="503.69,-16.91 493.21,-18.44 502.36,-23.78 503.69,-16.91"/>
</a>
</g>
</g>
<!-- Node15&#45;&gt;Node13 -->
<g id="edge20_Node000015_Node000013" class="edge">
<title>Node15&#45;&gt;Node13</title>
<g id="a_edge20_Node000015_Node000013"><a xlink:title=" ">
<path fill="none" stroke="#63b8ff" d="M731.58,-58.71C726.98,-57.73 722.24,-56.78 717.75,-56 590.31,-34 553.64,-42.84 423.74,-20.36"/>
<polygon fill="#63b8ff" stroke="#63b8ff" points="424.5,-16.94 414.05,-18.65 423.29,-23.84 424.5,-16.94"/>
</a>
</g>
</g>
<!-- Node16 -->
<g id="Node000016" class="node">
<title>Node16</title>
<g id="a_Node000016"><a xlink:title=" ">
<polygon fill="#e0e0e0" stroke="#999999" points="913.38,-20 862.12,-20 862.12,0 913.38,0 913.38,-20"/>
<text xml:space="preserve" text-anchor="middle" x="887.75" y="-6.5" font-family="Helvetica,sans-Serif" font-size="10.00">memory</text>
</a>
</g>
</g>
<!-- Node15&#45;&gt;Node16 -->
<g id="edge18_Node000015_Node000016" class="edge">
<title>Node15&#45;&gt;Node16</title>
<g id="a_edge18_Node000015_Node000016"><a xlink:title=" ">
<path fill="none" stroke="#63b8ff" d="M780.39,-55.59C800.87,-47.09 831.27,-34.46 854.5,-24.81"/>
<polygon fill="#63b8ff" stroke="#63b8ff" points="855.64,-28.13 863.53,-21.06 852.95,-21.66 855.64,-28.13"/>
</a>
</g>
</g>
<!-- Node17 -->
<g id="Node000017" class="node">
<title>Node17</title>
<g id="a_Node000017"><a xlink:title=" ">
<polygon fill="#e0e0e0" stroke="#999999" points="629.75,-20 583.75,-20 583.75,0 629.75,0 629.75,-20"/>
<text xml:space="preserve" text-anchor="middle" x="606.75" y="-6.5" font-family="Helvetica,sans-Serif" font-size="10.00">iterator</text>
</a>
</g>
</g>
<!-- Node15&#45;&gt;Node17 -->
<g id="edge19_Node000015_Node000017" class="edge">
<title>Node15&#45;&gt;Node17</title>
<g id="a_edge19_Node000015_Node000017"><a xlink:title=" ">
<path fill="none" stroke="#63b8ff" d="M731.45,-55.59C706.2,-46.56 667.94,-32.88 640.47,-23.06"/>
<polygon fill="#63b8ff" stroke="#63b8ff" points="641.81,-19.82 631.21,-19.75 639.45,-26.41 641.81,-19.82"/>
</a>
</g>
</g>
<!-- Node18 -->
<g id="Node000018" class="node">
<title>Node18</title>
<g id="a_Node000018"><a xlink:title=" ">
<polygon fill="#e0e0e0" stroke="#999999" points="719.88,-20 647.62,-20 647.62,0 719.88,0 719.88,-20"/>
<text xml:space="preserve" text-anchor="middle" x="683.75" y="-6.5" font-family="Helvetica,sans-Serif" font-size="10.00">initializer_list</text>
</a>
</g>
</g>
<!-- Node15&#45;&gt;Node18 -->
<g id="edge21_Node000015_Node000018" class="edge">
<title>Node15&#45;&gt;Node18</title>
<g id="a_edge21_Node000015_Node000018"><a xlink:title=" ">
<path fill="none" stroke="#63b8ff" d="M744.86,-55.59C734.04,-47.7 718.34,-36.24 705.56,-26.92"/>
<polygon fill="#63b8ff" stroke="#63b8ff" points="707.86,-24.26 697.71,-21.19 703.73,-29.91 707.86,-24.26"/>
</a>
</g>
</g>
<!-- Node15&#45;&gt;Node19 -->
<g id="edge22_Node000015_Node000019" class="edge">
<title>Node15&#45;&gt;Node19</title>
<g id="a_edge22_Node000015_Node000019"><a xlink:title=" ">
<path fill="none" stroke="#63b8ff" d="M731.65,-58.59C693.33,-49.19 621.56,-31.57 576.9,-20.61"/>
<polygon fill="#63b8ff" stroke="#63b8ff" points="577.91,-17.25 567.37,-18.27 576.24,-24.05 577.91,-17.25"/>
</a>
</g>
</g>
<!-- Node20 -->
<g id="Node000020" class="node">
<title>Node20</title>
<g id="a_Node000020"><a xlink:title=" ">
<polygon fill="#e0e0e0" stroke="#999999" points="777.38,-20 738.12,-20 738.12,0 777.38,0 777.38,-20"/>
<text xml:space="preserve" text-anchor="middle" x="757.75" y="-6.5" font-family="Helvetica,sans-Serif" font-size="10.00">utility</text>
</a>
</g>
</g>
<!-- Node15&#45;&gt;Node20 -->
<g id="edge23_Node000015_Node000020" class="edge">
<title>Node15&#45;&gt;Node20</title>
<g id="a_edge23_Node000015_Node000020"><a xlink:title=" ">
<path fill="none" stroke="#63b8ff" d="M757.75,-55.59C757.75,-49.01 757.75,-39.96 757.75,-31.73"/>
<polygon fill="#63b8ff" stroke="#63b8ff" points="761.25,-31.81 757.75,-21.81 754.25,-31.81 761.25,-31.81"/>
</a>
</g>
</g>
<!-- Node21 -->
<g id="Node000021" class="node">
<title>Node21</title>
<g id="a_Node000021"><a xlink:title=" ">
<polygon fill="#e0e0e0" stroke="#999999" points="843.88,-20 795.62,-20 795.62,0 843.88,0 843.88,-20"/>
<text xml:space="preserve" text-anchor="middle" x="819.75" y="-6.5" font-family="Helvetica,sans-Serif" font-size="10.00">cstddef</text>
</a>
</g>
</g>
<!-- Node15&#45;&gt;Node21 -->
<g id="edge25_Node000015_Node000021" class="edge">
<title>Node15&#45;&gt;Node21</title>
<g id="a_edge25_Node000015_Node000021"><a xlink:title=" ">
<path fill="none" stroke="#63b8ff" d="M768.55,-55.59C777.35,-47.93 790,-36.91 800.52,-27.75"/>
<polygon fill="#63b8ff" stroke="#63b8ff" points="802.69,-30.5 807.93,-21.29 798.09,-25.22 802.69,-30.5"/>
</a>
</g>
</g>
<!-- Node15&#45;&gt;Node22 -->
<g id="edge26_Node000015_Node000022" class="edge">
<title>Node15&#45;&gt;Node22</title>
<g id="a_edge26_Node000015_Node000022"><a xlink:title=" ">
<path fill="none" stroke="#63b8ff" d="M784.14,-58.19C814.7,-50.22 866.8,-36.39 919.91,-20.76"/>
<polygon fill="#63b8ff" stroke="#63b8ff" points="920.85,-24.13 929.45,-17.93 918.87,-17.42 920.85,-24.13"/>
</a>
</g>
</g>
<!-- Node26&#45;&gt;Node7 -->
<g id="edge37_Node000026_Node000007" class="edge">
<title>Node26&#45;&gt;Node7</title>
<g id="a_edge37_Node000026_Node000007"><a xlink:title=" ">
<path fill="none" stroke="#63b8ff" d="M580.97,-111.59C581.83,-104.93 583.02,-95.75 584.1,-87.44"/>
<polygon fill="#63b8ff" stroke="#63b8ff" points="587.54,-88.17 585.35,-77.8 580.59,-87.27 587.54,-88.17"/>
</a>
</g>
</g>
<!-- Node26&#45;&gt;Node15 -->
<g id="edge36_Node000026_Node000015" class="edge">
<title>Node26&#45;&gt;Node15</title>
<g id="a_edge36_Node000026_Node000015"><a xlink:title=" ">
<path fill="none" stroke="#63b8ff" d="M610.76,-111.59C641.32,-102.32 688.04,-88.15 720.58,-78.28"/>
<polygon fill="#63b8ff" stroke="#63b8ff" points="721.44,-81.67 730,-75.42 719.41,-74.97 721.44,-81.67"/>
</a>
</g>
</g>
</g>
</svg>
