<?xml version="1.0" encoding="UTF-8" standalone="no"?>
<!DOCTYPE svg PUBLIC "-//W3C//DTD SVG 1.1//EN"
 "http://www.w3.org/Graphics/SVG/1.1/DTD/svg11.dtd">
<!-- Generated by graphviz version 15.1.1 (20260805.0921)
 -->
<!-- Title: OOP_3/teststudentas.cpp Pages: 1 -->
<svg width="801pt" height="308pt"
 viewBox="0.00 0.00 801.00 308.00" xmlns="http://www.w3.org/2000/svg" xmlns:xlink="http://www.w3.org/1999/xlink">
<g id="graph0" class="graph" transform="scale(1 1) rotate(0) translate(4 304)">
<title>OOP_3/teststudentas.cpp</title>
<!-- Node1 -->
<g id="Node000001" class="node">
<title>Node1</title>
<g id="a_Node000001"><a xlink:title=" ">
<polygon fill="#999999" stroke="#666666" points="129.25,-300 0,-300 0,-280 129.25,-280 129.25,-300"/>
<text xml:space="preserve" text-anchor="middle" x="64.62" y="-286.5" font-family="Helvetica,sans-Serif" font-size="10.00">OOP_3/teststudentas.cpp</text>
</a>
</g>
</g>
<!-- Node2 -->
<g id="Node000002" class="node">
<title>Node2</title>
<g id="a_Node000002"><a xlink:href="teststudentas_8h.html" target="_top" xlink:title=" ">
<polygon fill="white" stroke="#666666" points="383.12,-244 298.12,-244 298.12,-224 383.12,-224 383.12,-244"/>
<text xml:space="preserve" text-anchor="middle" x="340.62" y="-230.5" font-family="Helvetica,sans-Serif" font-size="10.00">testStudentas.h</text>
</a>
</g>
</g>
<!-- Node1&#45;&gt;Node2 -->
<g id="edge1_Node000001_Node000002" class="edge">
<title>Node1&#45;&gt;Node2</title>
<g id="a_edge1_Node000001_Node000002"><a xlink:title=" ">
<path fill="none" stroke="#63b8ff" d="M113.02,-279.53C161.6,-270.03 236.28,-255.42 286.73,-245.55"/>
<polygon fill="#63b8ff" stroke="#63b8ff" points="287.11,-249.04 296.25,-243.68 285.76,-242.17 287.11,-249.04"/>
</a>
</g>
</g>
<!-- Node11 -->
<g id="Node000011" class="node">
<title>Node11</title>
<g id="a_Node000011"><a xlink:title=" ">
<polygon fill="#e0e0e0" stroke="#999999" points="133.5,-20 71.75,-20 71.75,0 133.5,0 133.5,-20"/>
<text xml:space="preserve" text-anchor="middle" x="102.62" y="-6.5" font-family="Helvetica,sans-Serif" font-size="10.00">type_traits</text>
</a>
</g>
</g>
<!-- Node1&#45;&gt;Node11 -->
<g id="edge41_Node000001_Node000011" class="edge">
<title>Node1&#45;&gt;Node11</title>
<g id="a_edge41_Node000001_Node000011"><a xlink:title=" ">
<path fill="none" stroke="#63b8ff" d="M64.62,-279.58C64.62,-260.57 64.62,-216.24 64.62,-179 64.62,-179 64.62,-179 64.62,-121 64.62,-87.77 80.31,-51.85 91.52,-30.4"/>
<polygon fill="#63b8ff" stroke="#63b8ff" points="94.57,-32.12 96.29,-21.66 88.43,-28.76 94.57,-32.12"/>
</a>
</g>
</g>
<!-- Node16 -->
<g id="Node000016" class="node">
<title>Node16</title>
<g id="a_Node000016"><a xlink:title=" ">
<polygon fill="#e0e0e0" stroke="#999999" points="53.25,-20 2,-20 2,0 53.25,0 53.25,-20"/>
<text xml:space="preserve" text-anchor="middle" x="27.62" y="-6.5" font-family="Helvetica,sans-Serif" font-size="10.00">memory</text>
</a>
</g>
</g>
<!-- Node1&#45;&gt;Node16 -->
<g id="edge40_Node000001_Node000016" class="edge">
<title>Node1&#45;&gt;Node16</title>
<g id="a_edge40_Node000001_Node000016"><a xlink:title=" ">
<path fill="none" stroke="#63b8ff" d="M59.02,-279.67C48.45,-261.16 26.62,-218.2 26.62,-179 26.62,-179 26.62,-179 26.62,-121 26.62,-89.87 27.03,-53.78 27.33,-31.68"/>
<polygon fill="#63b8ff" stroke="#63b8ff" points="30.82,-31.98 27.46,-21.93 23.82,-31.88 30.82,-31.98"/>
</a>
</g>
</g>
<!-- Node3 -->
<g id="Node000003" class="node">
<title>Node3</title>
<g id="a_Node000003"><a xlink:href="main_8h.html" target="_top" xlink:title=" ">
<polygon fill="white" stroke="#666666" points="396.25,-188 351,-188 351,-168 396.25,-168 396.25,-188"/>
<text xml:space="preserve" text-anchor="middle" x="373.62" y="-174.5" font-family="Helvetica,sans-Serif" font-size="10.00">main.h</text>
</a>
</g>
</g>
<!-- Node2&#45;&gt;Node3 -->
<g id="edge2_Node000002_Node000003" class="edge">
<title>Node2&#45;&gt;Node3</title>
<g id="a_edge2_Node000002_Node000003"><a xlink:title=" ">
<path fill="none" stroke="#63b8ff" d="M346.37,-223.59C350.68,-216.55 356.72,-206.67 362.01,-198"/>
<polygon fill="#63b8ff" stroke="#63b8ff" points="364.93,-199.95 367.15,-189.59 358.95,-196.3 364.93,-199.95"/>
</a>
</g>
</g>
<!-- Node27 -->
<g id="Node000027" class="node">
<title>Node27</title>
<g id="a_Node000027"><a xlink:title=" ">
<polygon fill="#e0e0e0" stroke="#999999" points="465.25,-188 414,-188 414,-168 465.25,-168 465.25,-188"/>
<text xml:space="preserve" text-anchor="middle" x="439.62" y="-174.5" font-family="Helvetica,sans-Serif" font-size="10.00">sstream</text>
</a>
</g>
</g>
<!-- Node2&#45;&gt;Node27 -->
<g id="edge38_Node000002_Node000027" class="edge">
<title>Node2&#45;&gt;Node27</title>
<g id="a_edge38_Node000002_Node000027"><a xlink:title=" ">
<path fill="none" stroke="#63b8ff" d="M357.87,-223.59C372.97,-215.36 395.15,-203.26 412.61,-193.74"/>
<polygon fill="#63b8ff" stroke="#63b8ff" points="413.81,-197.07 420.92,-189.2 410.46,-190.92 413.81,-197.07"/>
</a>
</g>
</g>
<!-- Node28 -->
<g id="Node000028" class="node">
<title>Node28</title>
<g id="a_Node000028"><a xlink:title=" ">
<polygon fill="#e0e0e0" stroke="#999999" points="333.12,-188 284.12,-188 284.12,-168 333.12,-168 333.12,-188"/>
<text xml:space="preserve" text-anchor="middle" x="308.62" y="-174.5" font-family="Helvetica,sans-Serif" font-size="10.00">fstream</text>
</a>
</g>
</g>
<!-- Node2&#45;&gt;Node28 -->
<g id="edge39_Node000002_Node000028" class="edge">
<title>Node2&#45;&gt;Node28</title>
<g id="a_edge39_Node000002_Node000028"><a xlink:title=" ">
<path fill="none" stroke="#63b8ff" d="M335.05,-223.59C330.88,-216.55 325.02,-206.67 319.88,-198"/>
<polygon fill="#63b8ff" stroke="#63b8ff" points="323.02,-196.42 314.91,-189.6 316.99,-199.99 323.02,-196.42"/>
</a>
</g>
</g>
<!-- Node4 -->
<g id="Node000004" class="node">
<title>Node4</title>
<g id="a_Node000004"><a xlink:title=" ">
<polygon fill="#e0e0e0" stroke="#999999" points="375.88,-132 313.38,-132 313.38,-112 375.88,-112 375.88,-132"/>
<text xml:space="preserve" text-anchor="middle" x="344.62" y="-118.5" font-family="Helvetica,sans-Serif" font-size="10.00">windows.h</text>
</a>
</g>
</g>
<!-- Node3&#45;&gt;Node4 -->
<g id="edge3_Node000003_Node000004" class="edge">
<title>Node3&#45;&gt;Node4</title>
<g id="a_edge3_Node000003_Node000004"><a xlink:title=" ">
<path fill="none" stroke="#63b8ff" d="M368.57,-167.59C364.83,-160.63 359.6,-150.89 354.98,-142.29"/>
<polygon fill="#63b8ff" stroke="#63b8ff" points="358.15,-140.79 350.33,-133.63 351.98,-144.1 358.15,-140.79"/>
</a>
</g>
</g>
<!-- Node5 -->
<g id="Node000005" class="node">
<title>Node5</title>
<g id="a_Node000005"><a xlink:title=" ">
<polygon fill="#e0e0e0" stroke="#999999" points="793.38,-20 739.88,-20 739.88,0 793.38,0 793.38,-20"/>
<text xml:space="preserve" text-anchor="middle" x="766.62" y="-6.5" font-family="Helvetica,sans-Serif" font-size="10.00">iostream</text>
</a>
</g>
</g>
<!-- Node3&#45;&gt;Node5 -->
<g id="edge4_Node000003_Node000005" class="edge">
<title>Node3&#45;&gt;Node5</title>
<g id="a_edge4_Node000003_Node000005"><a xlink:title=" ">
<path fill="none" stroke="#63b8ff" d="M396.54,-169.88C399.25,-169.18 401.99,-168.53 404.62,-168 542.34,-140.32 597.18,-202.59 718.62,-132 745.29,-116.5 748.48,-104.76 759.62,-76 765.16,-61.72 766.8,-44.45 767.12,-31.29"/>
<polygon fill="#63b8ff" stroke="#63b8ff" points="770.62,-31.69 767.11,-21.69 763.62,-31.7 770.62,-31.69"/>
</a>
</g>
</g>
<!-- Node6 -->
<g id="Node000006" class="node">
<title>Node6</title>
<g id="a_Node000006"><a xlink:title=" ">
<polygon fill="#e0e0e0" stroke="#999999" points="721.62,-20 681.62,-20 681.62,0 721.62,0 721.62,-20"/>
<text xml:space="preserve" text-anchor="middle" x="701.62" y="-6.5" font-family="Helvetica,sans-Serif" font-size="10.00">string</text>
</a>
</g>
</g>
<!-- Node3&#45;&gt;Node6 -->
<g id="edge5_Node000003_Node000006" class="edge">
<title>Node3&#45;&gt;Node6</title>
<g id="a_edge5_Node000003_Node000006"><a xlink:title=" ">
<path fill="none" stroke="#63b8ff" d="M396.57,-169.99C399.27,-169.27 402,-168.59 404.62,-168 556.98,-133.94 661.55,-208.8 743.62,-76 753.96,-59.28 738.77,-40.44 723.85,-27.37"/>
<polygon fill="#63b8ff" stroke="#63b8ff" points="726.43,-24.96 716.46,-21.35 722.01,-30.38 726.43,-24.96"/>
</a>
</g>
</g>
<!-- Node7 -->
<g id="Node000007" class="node">
<title>Node7</title>
<g id="a_Node000007"><a xlink:title=" ">
<polygon fill="#e0e0e0" stroke="#999999" points="264.12,-76 221.12,-76 221.12,-56 264.12,-56 264.12,-76"/>
<text xml:space="preserve" text-anchor="middle" x="242.62" y="-62.5" font-family="Helvetica,sans-Serif" font-size="10.00">vector</text>
</a>
</g>
</g>
<!-- Node3&#45;&gt;Node7 -->
<g id="edge6_Node000003_Node000007" class="edge">
<title>Node3&#45;&gt;Node7</title>
<g id="a_edge6_Node000003_Node000007"><a xlink:title=" ">
<path fill="none" stroke="#63b8ff" d="M379.18,-167.61C386.41,-154 396.79,-128.62 384.62,-112 382.95,-109.71 316.83,-89.41 275.42,-76.87"/>
<polygon fill="#63b8ff" stroke="#63b8ff" points="276.5,-73.54 265.92,-74 274.48,-80.24 276.5,-73.54"/>
</a>
</g>
</g>
<!-- Node8 -->
<g id="Node000008" class="node">
<title>Node8</title>
<g id="a_Node000008"><a xlink:title=" ">
<polygon fill="#e0e0e0" stroke="#999999" points="159.03,-132 130.22,-132 130.22,-112 159.03,-112 159.03,-132"/>
<text xml:space="preserve" text-anchor="middle" x="144.62" y="-118.5" font-family="Helvetica,sans-Serif" font-size="10.00">list</text>
</a>
</g>
</g>
<!-- Node3&#45;&gt;Node8 -->
<g id="edge7_Node000003_Node000008" class="edge">
<title>Node3&#45;&gt;Node8</title>
<g id="a_edge7_Node000003_Node000008"><a xlink:title=" ">
<path fill="none" stroke="#63b8ff" d="M350.66,-170.11C347.96,-169.37 345.24,-168.65 342.62,-168 269.27,-149.79 246.44,-153.55 170.1,-132.03"/>
<polygon fill="#63b8ff" stroke="#63b8ff" points="171.52,-128.8 160.94,-129.4 169.58,-135.53 171.52,-128.8"/>
</a>
</g>
</g>
<!-- Node9 -->
<g id="Node000009" class="node">
<title>Node9</title>
<g id="a_Node000009"><a xlink:title=" ">
<polygon fill="#e0e0e0" stroke="#999999" points="219.75,-132 177.5,-132 177.5,-112 219.75,-112 219.75,-132"/>
<text xml:space="preserve" text-anchor="middle" x="198.62" y="-118.5" font-family="Helvetica,sans-Serif" font-size="10.00">deque</text>
</a>
</g>
</g>
<!-- Node3&#45;&gt;Node9 -->
<g id="edge8_Node000003_Node000009" class="edge">
<title>Node3&#45;&gt;Node9</title>
<g id="a_edge8_Node000003_Node000009"><a xlink:title=" ">
<path fill="none" stroke="#63b8ff" d="M350.75,-169.94C320.2,-160.51 265.91,-143.76 231.12,-133.03"/>
<polygon fill="#63b8ff" stroke="#63b8ff" points="232.17,-129.69 221.58,-130.08 230.11,-136.38 232.17,-129.69"/>
</a>
</g>
</g>
<!-- Node10 -->
<g id="Node000010" class="node">
<title>Node10</title>
<g id="a_Node000010"><a xlink:title=" ">
<polygon fill="#e0e0e0" stroke="#999999" points="295.62,-132 237.62,-132 237.62,-112 295.62,-112 295.62,-132"/>
<text xml:space="preserve" text-anchor="middle" x="266.62" y="-118.5" font-family="Helvetica,sans-Serif" font-size="10.00">exception</text>
</a>
</g>
</g>
<!-- Node3&#45;&gt;Node10 -->
<g id="edge9_Node000003_Node000010" class="edge">
<title>Node3&#45;&gt;Node10</title>
<g id="a_edge9_Node000003_Node000010"><a xlink:title=" ">
<path fill="none" stroke="#63b8ff" d="M354.99,-167.59C338.59,-159.32 314.47,-147.14 295.56,-137.6"/>
<polygon fill="#63b8ff" stroke="#63b8ff" points="297.26,-134.54 286.76,-133.16 294.11,-140.79 297.26,-134.54"/>
</a>
</g>
</g>
<!-- Node3&#45;&gt;Node11 -->
<g id="edge10_Node000003_Node000011" class="edge">
<title>Node3&#45;&gt;Node11</title>
<g id="a_edge10_Node000003_Node000011"><a xlink:title=" ">
<path fill="none" stroke="#63b8ff" d="M350.68,-170C347.98,-169.28 345.25,-168.59 342.62,-168 294.09,-157.04 156.71,-167.29 121.62,-132 95.35,-105.57 96.14,-58.63 99.26,-31.64"/>
<polygon fill="#63b8ff" stroke="#63b8ff" points="102.69,-32.36 100.61,-21.97 95.76,-31.39 102.69,-32.36"/>
</a>
</g>
</g>
<!-- Node12 -->
<g id="Node000012" class="node">
<title>Node12</title>
<g id="a_Node000012"><a xlink:href="zmogus_8h.html" target="_top" xlink:title="Abstrakti bazinė klasė, aprašanti bendrus žmogaus duomenis.">
<polygon fill="white" stroke="#666666" points="735,-76 676.25,-76 676.25,-56 735,-56 735,-76"/>
<text xml:space="preserve" text-anchor="middle" x="705.62" y="-62.5" font-family="Helvetica,sans-Serif" font-size="10.00">zmogus.h</text>
</a>
</g>
</g>
<!-- Node3&#45;&gt;Node12 -->
<g id="edge11_Node000003_Node000012" class="edge">
<title>Node3&#45;&gt;Node12</title>
<g id="a_edge11_Node000003_Node000012"><a xlink:title=" ">
<path fill="none" stroke="#63b8ff" d="M396.58,-170.06C399.28,-169.33 402.01,-168.62 404.62,-168 489.51,-147.81 516.06,-162.99 597.62,-132 629.8,-119.78 663.2,-98.04 684.18,-83.09"/>
<polygon fill="#63b8ff" stroke="#63b8ff" points="686.17,-85.97 692.2,-77.26 682.05,-80.31 686.17,-85.97"/>
</a>
</g>
</g>
<!-- Node14 -->
<g id="Node000014" class="node">
<title>Node14</title>
<g id="a_Node000014"><a xlink:href="studentas_8h.html" target="_top" xlink:title="Išvestinė klasė studentas — studento duomenys ir galutinių balų skaičiavimas.">
<polygon fill="white" stroke="#666666" points="588.12,-132 521.12,-132 521.12,-112 588.12,-112 588.12,-132"/>
<text xml:space="preserve" text-anchor="middle" x="554.62" y="-118.5" font-family="Helvetica,sans-Serif" font-size="10.00">studentas.h</text>
</a>
</g>
</g>
<!-- Node3&#45;&gt;Node14 -->
<g id="edge15_Node000003_Node000014" class="edge">
<title>Node3&#45;&gt;Node14</title>
<g id="a_edge15_Node000003_Node000014"><a xlink:title=" ">
<path fill="none" stroke="#63b8ff" d="M396.55,-170.16C425.6,-161.49 476.24,-146.39 512.37,-135.61"/>
<polygon fill="#63b8ff" stroke="#63b8ff" points="513.05,-139.06 521.63,-132.84 511.05,-132.35 513.05,-139.06"/>
</a>
</g>
</g>
<!-- Node26 -->
<g id="Node000026" class="node">
<title>Node26</title>
<g id="a_Node000026"><a xlink:href="konteineris_8h.html" target="_top" xlink:title="Konteinerio tipo perjungimas tarp std::vector ir nuosavos Vector.">
<polygon fill="white" stroke="#666666" points="503.38,-132 431.88,-132 431.88,-112 503.38,-112 503.38,-132"/>
<text xml:space="preserve" text-anchor="middle" x="467.62" y="-118.5" font-family="Helvetica,sans-Serif" font-size="10.00">konteineris.h</text>
</a>
</g>
</g>
<!-- Node3&#45;&gt;Node26 -->
<g id="edge35_Node000003_Node000026" class="edge">
<title>Node3&#45;&gt;Node26</title>
<g id="a_edge35_Node000003_Node000026"><a xlink:title=" ">
<path fill="none" stroke="#63b8ff" d="M390,-167.59C404.2,-159.44 425.01,-147.48 441.51,-138"/>
<polygon fill="#63b8ff" stroke="#63b8ff" points="442.88,-141.25 449.81,-133.23 439.4,-135.18 442.88,-141.25"/>
</a>
</g>
</g>
<!-- Node12&#45;&gt;Node5 -->
<g id="edge13_Node000012_Node000005" class="edge">
<title>Node12&#45;&gt;Node5</title>
<g id="a_edge13_Node000012_Node000005"><a xlink:title=" ">
<path fill="none" stroke="#63b8ff" d="M716.25,-55.59C724.91,-47.93 737.36,-36.91 747.71,-27.75"/>
<polygon fill="#63b8ff" stroke="#63b8ff" points="749.82,-30.55 754.99,-21.3 745.18,-25.31 749.82,-30.55"/>
</a>
</g>
</g>
<!-- Node12&#45;&gt;Node6 -->
<g id="edge12_Node000012_Node000006" class="edge">
<title>Node12&#45;&gt;Node6</title>
<g id="a_edge12_Node000012_Node000006"><a xlink:title=" ">
<path fill="none" stroke="#63b8ff" d="M704.93,-55.59C704.44,-49.01 703.77,-39.96 703.16,-31.73"/>
<polygon fill="#63b8ff" stroke="#63b8ff" points="706.65,-31.52 702.43,-21.81 699.67,-32.04 706.65,-31.52"/>
</a>
</g>
</g>
<!-- Node13 -->
<g id="Node000013" class="node">
<title>Node13</title>
<g id="a_Node000013"><a xlink:title=" ">
<polygon fill="#e0e0e0" stroke="#999999" points="640,-20 581.25,-20 581.25,0 640,0 640,-20"/>
<text xml:space="preserve" text-anchor="middle" x="610.62" y="-6.5" font-family="Helvetica,sans-Serif" font-size="10.00">stdexcept</text>
</a>
</g>
</g>
<!-- Node12&#45;&gt;Node13 -->
<g id="edge14_Node000012_Node000013" class="edge">
<title>Node12&#45;&gt;Node13</title>
<g id="a_edge14_Node000012_Node000013"><a xlink:title=" ">
<path fill="none" stroke="#63b8ff" d="M689.08,-55.59C674.73,-47.44 653.7,-35.48 637.02,-26"/>
<polygon fill="#63b8ff" stroke="#63b8ff" points="639.04,-23.13 628.62,-21.23 635.58,-29.21 639.04,-23.13"/>
</a>
</g>
</g>
<!-- Node14&#45;&gt;Node5 -->
<g id="edge29_Node000014_Node000005" class="edge">
<title>Node14&#45;&gt;Node5</title>
<g id="a_edge29_Node000014_Node000005"><a xlink:title=" ">
<path fill="none" stroke="#63b8ff" d="M588.34,-116.88C636.31,-110.37 720.99,-96.35 743.62,-76 756.29,-64.61 761.99,-45.8 764.54,-31.33"/>
<polygon fill="#63b8ff" stroke="#63b8ff" points="767.99,-31.92 765.87,-21.54 761.06,-30.98 767.99,-31.92"/>
</a>
</g>
</g>
<!-- Node14&#45;&gt;Node6 -->
<g id="edge27_Node000014_Node000006" class="edge">
<title>Node14&#45;&gt;Node6</title>
<g id="a_edge27_Node000014_Node000006"><a xlink:title=" ">
<path fill="none" stroke="#63b8ff" d="M567.16,-111.62C592.22,-92.87 648.77,-50.55 679.96,-27.21"/>
<polygon fill="#63b8ff" stroke="#63b8ff" points="682,-30.06 687.91,-21.26 677.81,-24.45 682,-30.06"/>
</a>
</g>
</g>
<!-- Node14&#45;&gt;Node7 -->
<g id="edge28_Node000014_Node000007" class="edge">
<title>Node14&#45;&gt;Node7</title>
<g id="a_edge28_Node000014_Node000007"><a xlink:title=" ">
<path fill="none" stroke="#63b8ff" d="M520.73,-113.55C517.99,-113.01 515.27,-112.48 512.62,-112 410.45,-93.38 380.52,-98.64 275.63,-76.17"/>
<polygon fill="#63b8ff" stroke="#63b8ff" points="276.54,-72.79 266.03,-74.08 275.05,-79.63 276.54,-72.79"/>
</a>
</g>
</g>
<!-- Node14&#45;&gt;Node12 -->
<g id="edge16_Node000014_Node000012" class="edge">
<title>Node14&#45;&gt;Node12</title>
<g id="a_edge16_Node000014_Node000012"><a xlink:title=" ">
<path fill="none" stroke="#63b8ff" d="M580.93,-111.59C605.14,-102.94 641.3,-90 668.46,-80.29"/>
<polygon fill="#63b8ff" stroke="#63b8ff" points="669.45,-83.65 677.69,-76.99 667.1,-77.06 669.45,-83.65"/>
</a>
</g>
</g>
<!-- Node14&#45;&gt;Node13 -->
<g id="edge33_Node000014_Node000013" class="edge">
<title>Node14&#45;&gt;Node13</title>
<g id="a_edge33_Node000014_Node000013"><a xlink:title=" ">
<path fill="none" stroke="#63b8ff" d="M564.1,-111.82C572.44,-103.26 584.35,-89.77 591.62,-76 599.04,-61.98 603.91,-44.69 606.87,-31.46"/>
<polygon fill="#63b8ff" stroke="#63b8ff" points="610.28,-32.25 608.83,-21.76 603.42,-30.86 610.28,-32.25"/>
</a>
</g>
</g>
<!-- Node15 -->
<g id="Node000015" class="node">
<title>Node15</title>
<g id="a_Node000015"><a xlink:href="_vector_8h.html" target="_top" xlink:title="Nuosava std::vector alternatyva — dinaminis masyvas.">
<polygon fill="white" stroke="#666666" points="334.62,-76 282.62,-76 282.62,-56 334.62,-56 334.62,-76"/>
<text xml:space="preserve" text-anchor="middle" x="308.62" y="-62.5" font-family="Helvetica,sans-Serif" font-size="10.00">Vector.h</text>
</a>
</g>
</g>
<!-- Node14&#45;&gt;Node15 -->
<g id="edge17_Node000014_Node000015" class="edge">
<title>Node14&#45;&gt;Node15</title>
<g id="a_edge17_Node000014_Node000015"><a xlink:title=" ">
<path fill="none" stroke="#63b8ff" d="M520.7,-113.73C517.97,-113.14 515.25,-112.56 512.62,-112 440.9,-96.68 420.22,-93.81 345.83,-76.45"/>
<polygon fill="#63b8ff" stroke="#63b8ff" points="346.98,-73.12 336.44,-74.25 345.38,-79.94 346.98,-73.12"/>
</a>
</g>
</g>
<!-- Node19 -->
<g id="Node000019" class="node">
<title>Node19</title>
<g id="a_Node000019"><a xlink:title=" ">
<polygon fill="#e0e0e0" stroke="#999999" points="543.5,-20 487.75,-20 487.75,0 543.5,0 543.5,-20"/>
<text xml:space="preserve" text-anchor="middle" x="515.62" y="-6.5" font-family="Helvetica,sans-Serif" font-size="10.00">algorithm</text>
</a>
</g>
</g>
<!-- Node14&#45;&gt;Node19 -->
<g id="edge31_Node000014_Node000019" class="edge">
<title>Node14&#45;&gt;Node19</title>
<g id="a_edge31_Node000014_Node000019"><a xlink:title=" ">
<path fill="none" stroke="#63b8ff" d="M543.59,-111.55C534.75,-103.21 522.96,-90.2 517.62,-76 512.27,-61.74 512,-44.46 512.95,-31.31"/>
<polygon fill="#63b8ff" stroke="#63b8ff" points="516.39,-32 513.94,-21.69 509.43,-31.28 516.39,-32"/>
</a>
</g>
</g>
<!-- Node23 -->
<g id="Node000023" class="node">
<title>Node23</title>
<g id="a_Node000023"><a xlink:title=" ">
<polygon fill="#e0e0e0" stroke="#999999" points="402.88,-76 352.38,-76 352.38,-56 402.88,-56 402.88,-76"/>
<text xml:space="preserve" text-anchor="middle" x="377.62" y="-62.5" font-family="Helvetica,sans-Serif" font-size="10.00">numeric</text>
</a>
</g>
</g>
<!-- Node14&#45;&gt;Node23 -->
<g id="edge30_Node000014_Node000023" class="edge">
<title>Node14&#45;&gt;Node23</title>
<g id="a_edge30_Node000014_Node000023"><a xlink:title=" ">
<path fill="none" stroke="#63b8ff" d="M523.79,-111.59C493.23,-102.27 446.4,-87.98 414.03,-78.11"/>
<polygon fill="#63b8ff" stroke="#63b8ff" points="415.26,-74.82 404.67,-75.25 413.22,-81.52 415.26,-74.82"/>
</a>
</g>
</g>
<!-- Node24 -->
<g id="Node000024" class="node">
<title>Node24</title>
<g id="a_Node000024"><a xlink:title=" ">
<polygon fill="#e0e0e0" stroke="#999999" points="470.5,-76 420.75,-76 420.75,-56 470.5,-56 470.5,-76"/>
<text xml:space="preserve" text-anchor="middle" x="445.62" y="-62.5" font-family="Helvetica,sans-Serif" font-size="10.00">iomanip</text>
</a>
</g>
</g>
<!-- Node14&#45;&gt;Node24 -->
<g id="edge32_Node000014_Node000024" class="edge">
<title>Node14&#45;&gt;Node24</title>
<g id="a_edge32_Node000014_Node000024"><a xlink:title=" ">
<path fill="none" stroke="#63b8ff" d="M535.64,-111.59C518.86,-103.28 494.13,-91.03 474.84,-81.47"/>
<polygon fill="#63b8ff" stroke="#63b8ff" points="476.63,-78.45 466.12,-77.15 473.52,-84.73 476.63,-78.45"/>
</a>
</g>
</g>
<!-- Node25 -->
<g id="Node000025" class="node">
<title>Node25</title>
<g id="a_Node000025"><a xlink:title=" ">
<polygon fill="#e0e0e0" stroke="#999999" points="582.5,-76 526.75,-76 526.75,-56 582.5,-56 582.5,-76"/>
<text xml:space="preserve" text-anchor="middle" x="554.62" y="-62.5" font-family="Helvetica,sans-Serif" font-size="10.00">charconv</text>
</a>
</g>
</g>
<!-- Node14&#45;&gt;Node25 -->
<g id="edge34_Node000014_Node000025" class="edge">
<title>Node14&#45;&gt;Node25</title>
<g id="a_edge34_Node000014_Node000025"><a xlink:title=" ">
<path fill="none" stroke="#63b8ff" d="M554.62,-111.59C554.62,-105.01 554.62,-95.96 554.62,-87.73"/>
<polygon fill="#63b8ff" stroke="#63b8ff" points="558.13,-87.81 554.63,-77.81 551.13,-87.81 558.13,-87.81"/>
</a>
</g>
</g>
<!-- Node15&#45;&gt;Node11 -->
<g id="edge24_Node000015_Node000011" class="edge">
<title>Node15&#45;&gt;Node11</title>
<g id="a_edge24_Node000015_Node000011"><a xlink:title=" ">
<path fill="none" stroke="#63b8ff" d="M282.53,-58.16C247.9,-49.08 186.3,-32.94 144.96,-22.1"/>
<polygon fill="#63b8ff" stroke="#63b8ff" points="145.91,-18.73 135.34,-19.58 144.13,-25.5 145.91,-18.73"/>
</a>
</g>
</g>
<!-- Node15&#45;&gt;Node13 -->
<g id="edge20_Node000015_Node000013" class="edge">
<title>Node15&#45;&gt;Node13</title>
<g id="a_edge20_Node000015_Node000013"><a xlink:title=" ">
<path fill="none" stroke="#63b8ff" d="M334.94,-57.98C337.86,-57.27 340.8,-56.6 343.62,-56 386.05,-46.99 506.02,-27.59 569.72,-17.46"/>
<polygon fill="#63b8ff" stroke="#63b8ff" points="570.1,-20.94 579.43,-15.92 569.01,-14.03 570.1,-20.94"/>
</a>
</g>
</g>
<!-- Node15&#45;&gt;Node16 -->
<g id="edge18_Node000015_Node000016" class="edge">
<title>Node15&#45;&gt;Node16</title>
<g id="a_edge18_Node000015_Node000016"><a xlink:title=" ">
<path fill="none" stroke="#63b8ff" d="M282.31,-57.98C279.39,-57.28 276.45,-56.6 273.62,-56 184.04,-36.87 157.61,-39.62 64.62,-20.26"/>
<polygon fill="#63b8ff" stroke="#63b8ff" points="65.55,-16.88 55.04,-18.24 64.1,-23.73 65.55,-16.88"/>
</a>
</g>
</g>
<!-- Node17 -->
<g id="Node000017" class="node">
<title>Node17</title>
<g id="a_Node000017"><a xlink:title=" ">
<polygon fill="#e0e0e0" stroke="#999999" points="321.62,-20 275.62,-20 275.62,0 321.62,0 321.62,-20"/>
<text xml:space="preserve" text-anchor="middle" x="298.62" y="-6.5" font-family="Helvetica,sans-Serif" font-size="10.00">iterator</text>
</a>
</g>
</g>
<!-- Node15&#45;&gt;Node17 -->
<g id="edge19_Node000015_Node000017" class="edge">
<title>Node15&#45;&gt;Node17</title>
<g id="a_edge19_Node000015_Node000017"><a xlink:title=" ">
<path fill="none" stroke="#63b8ff" d="M306.88,-55.59C305.65,-48.93 303.95,-39.75 302.41,-31.44"/>
<polygon fill="#63b8ff" stroke="#63b8ff" points="305.88,-30.98 300.62,-21.79 299,-32.26 305.88,-30.98"/>
</a>
</g>
</g>
<!-- Node18 -->
<g id="Node000018" class="node">
<title>Node18</title>
<g id="a_Node000018"><a xlink:title=" ">
<polygon fill="#e0e0e0" stroke="#999999" points="411.75,-20 339.5,-20 339.5,0 411.75,0 411.75,-20"/>
<text xml:space="preserve" text-anchor="middle" x="375.62" y="-6.5" font-family="Helvetica,sans-Serif" font-size="10.00">initializer_list</text>
</a>
</g>
</g>
<!-- Node15&#45;&gt;Node18 -->
<g id="edge21_Node000015_Node000018" class="edge">
<title>Node15&#45;&gt;Node18</title>
<g id="a_edge21_Node000015_Node000018"><a xlink:title=" ">
<path fill="none" stroke="#63b8ff" d="M320.3,-55.59C329.9,-47.85 343.75,-36.69 355.19,-27.47"/>
<polygon fill="#63b8ff" stroke="#63b8ff" points="357.32,-30.25 362.91,-21.25 352.93,-24.8 357.32,-30.25"/>
</a>
</g>
</g>
<!-- Node15&#45;&gt;Node19 -->
<g id="edge22_Node000015_Node000019" class="edge">
<title>Node15&#45;&gt;Node19</title>
<g id="a_edge22_Node000015_Node000019"><a xlink:title=" ">
<path fill="none" stroke="#63b8ff" d="M334.84,-58.16C370.54,-48.85 434.74,-32.1 476.24,-21.27"/>
<polygon fill="#63b8ff" stroke="#63b8ff" points="477.05,-24.68 485.84,-18.77 475.28,-17.91 477.05,-24.68"/>
</a>
</g>
</g>
<!-- Node20 -->
<g id="Node000020" class="node">
<title>Node20</title>
<g id="a_Node000020"><a xlink:title=" ">
<polygon fill="#e0e0e0" stroke="#999999" points="469.25,-20 430,-20 430,0 469.25,0 469.25,-20"/>
<text xml:space="preserve" text-anchor="middle" x="449.62" y="-6.5" font-family="Helvetica,sans-Serif" font-size="10.00">utility</text>
</a>
</g>
</g>
<!-- Node15&#45;&gt;Node20 -->
<g id="edge23_Node000015_Node000020" class="edge">
<title>Node15&#45;&gt;Node20</title>
<g id="a_edge23_Node000015_Node000020"><a xlink:title=" ">
<path fill="none" stroke="#63b8ff" d="M333.19,-55.59C357.1,-46.43 393.52,-32.49 419.24,-22.63"/>
<polygon fill="#63b8ff" stroke="#63b8ff" points="420.39,-25.94 428.48,-19.1 417.89,-19.41 420.39,-25.94"/>
</a>
</g>
</g>
<!-- Node21 -->
<g id="Node000021" class="node">
<title>Node21</title>
<g id="a_Node000021"><a xlink:title=" ">
<polygon fill="#e0e0e0" stroke="#999999" points="199.75,-20 151.5,-20 151.5,0 199.75,0 199.75,-20"/>
<text xml:space="preserve" text-anchor="middle" x="175.62" y="-6.5" font-family="Helvetica,sans-Serif" font-size="10.00">cstddef</text>
</a>
</g>
</g>
<!-- Node15&#45;&gt;Node21 -->
<g id="edge25_Node000015_Node000021" class="edge">
<title>Node15&#45;&gt;Node21</title>
<g id="a_edge25_Node000015_Node000021"><a xlink:title=" ">
<path fill="none" stroke="#63b8ff" d="M285.46,-55.59C264.42,-47.05 233.13,-34.35 209.32,-24.68"/>
<polygon fill="#63b8ff" stroke="#63b8ff" points="210.96,-21.57 200.37,-21.05 208.32,-28.05 210.96,-21.57"/>
</a>
</g>
</g>
<!-- Node22 -->
<g id="Node000022" class="node">
<title>Node22</title>
<g id="a_Node000022"><a xlink:title=" ">
<polygon fill="#e0e0e0" stroke="#999999" points="257.25,-20 218,-20 218,0 257.25,0 257.25,-20"/>
<text xml:space="preserve" text-anchor="middle" x="237.62" y="-6.5" font-family="Helvetica,sans-Serif" font-size="10.00">limits</text>
</a>
</g>
</g>
<!-- Node15&#45;&gt;Node22 -->
<g id="edge26_Node000015_Node000022" class="edge">
<title>Node15&#45;&gt;Node22</title>
<g id="a_edge26_Node000015_Node000022"><a xlink:title=" ">
<path fill="none" stroke="#63b8ff" d="M296.26,-55.59C285.98,-47.77 271.11,-36.46 258.91,-27.19"/>
<polygon fill="#63b8ff" stroke="#63b8ff" points="261.13,-24.48 251.06,-21.21 256.9,-30.05 261.13,-24.48"/>
</a>
</g>
</g>
<!-- Node26&#45;&gt;Node7 -->
<g id="edge37_Node000026_Node000007" class="edge">
<title>Node26&#45;&gt;Node7</title>
<g id="a_edge37_Node000026_Node000007"><a xlink:title=" ">
<path fill="none" stroke="#63b8ff" d="M431.73,-113.29C394.89,-105.24 335.68,-91.93 275.45,-76.37"/>
<polygon fill="#63b8ff" stroke="#63b8ff" points="276.62,-73.06 266.06,-73.92 274.86,-79.83 276.62,-73.06"/>
</a>
</g>
</g>
<!-- Node26&#45;&gt;Node15 -->
<g id="edge36_Node000026_Node000015" class="edge">
<title>Node26&#45;&gt;Node15</title>
<g id="a_edge36_Node000026_Node000015"><a xlink:title=" ">
<path fill="none" stroke="#63b8ff" d="M439.93,-111.59C413.85,-102.74 374.6,-89.41 345.81,-79.63"/>
<polygon fill="#63b8ff" stroke="#63b8ff" points="346.98,-76.33 336.38,-76.43 344.72,-82.96 346.98,-76.33"/>
</a>
</g>
</g>
</g>
</svg>
